<svg xmlns="http://www.w3.org/2000/svg" width="1192" height="960">
<style>
line, path, circle, rect, polygon{stroke:black;stroke-width:1;stroke-opacity:1;fill-opacity:1;stroke-linecap:round;stroke-linejoin:miter;}text{font-family:Iosevka Fixed, monospace;font-size:14px;}rect.backdrop{stroke:none;fill:white;}.broken{stroke-dasharray:8;}.filled{fill:black;}.bg_filled{fill:white;}.nofill{fill:white;}.end_marked_arrow{marker-end:url(#arrow);}.start_marked_arrow{marker-start:url(#arrow);}.end_marked_diamond{marker-end:url(#diamond);}.start_marked_diamond{marker-start:url(#diamond);}.end_marked_circle{marker-end:url(#circle);}.start_marked_circle{marker-start:url(#circle);}.end_marked_open_circle{marker-end:url(#open_circle);}.start_marked_open_circle{marker-start:url(#open_circle);}.end_marked_big_open_circle{marker-end:url(#big_open_circle);}.start_marked_big_open_circle{marker-start:url(#big_open_circle);}
<!--separator-->

</style>
<defs>
<marker id="arrow" viewBox="-2 -2 8 8" refX="4" refY="2" markerWidth="7" markerHeight="7" orient="auto-start-reverse">
<polygon points="0,0 0,4 4,2 0,0"></polygon>
</marker>
<marker id="diamond" viewBox="-2 -2 8 8" refX="4" refY="2" markerWidth="7" markerHeight="7" orient="auto-start-reverse">
<polygon points="0,2 2,0 4,2 2,4 0,2"></polygon>
</marker>
<marker id="circle" viewBox="0 0 8 8" refX="4" refY="4" markerWidth="7" markerHeight="7" orient="auto-start-reverse">
<circle cx="4" cy="4" r="2" class="filled"></circle>
</marker>
<marker id="open_circle" viewBox="0 0 8 8" refX="4" refY="4" markerWidth="7" markerHeight="7" orient="auto-start-reverse">
<circle cx="4" cy="4" r="2" class="bg_filled"></circle>
</marker>
<marker id="big_open_circle" viewBox="0 0 8 8" refX="4" refY="4" markerWidth="7" markerHeight="7" orient="auto-start-reverse">
<circle cx="4" cy="4" r="3" class="bg_filled"></circle>
</marker>
</defs>
<rect class="backdrop" x="0" y="0" width="1192" height="960"></rect>
<circle cx="492" cy="24" r="8" class="nofill"></circle>
<text x="506" y="892" >1010100101000100001</text>
<text x="506" y="908" >1010100101101111011</text>
<line x1="144" y1="136" x2="152" y2="136" class="solid"></line>
<line x1="160" y1="136" x2="168" y2="136" class="solid"></line>
<line x1="176" y1="136" x2="184" y2="136" class="solid"></line>
<line x1="192" y1="136" x2="200" y2="136" class="solid"></line>
<line x1="208" y1="136" x2="216" y2="136" class="solid"></line>
<line x1="224" y1="136" x2="232" y2="136" class="solid"></line>
<line x1="240" y1="136" x2="248" y2="136" class="solid"></line>
<line x1="256" y1="136" x2="264" y2="136" class="solid"></line>
<line x1="272" y1="136" x2="280" y2="136" class="solid"></line>
<line x1="288" y1="136" x2="296" y2="136" class="solid"></line>
<line x1="304" y1="136" x2="312" y2="136" class="solid"></line>
<line x1="320" y1="136" x2="328" y2="136" class="solid"></line>
<line x1="336" y1="136" x2="344" y2="136" class="solid"></line>
<line x1="352" y1="136" x2="360" y2="136" class="solid"></line>
<line x1="368" y1="136" x2="376" y2="136" class="solid"></line>
<line x1="384" y1="136" x2="392" y2="136" class="solid"></line>
<line x1="144" y1="216" x2="152" y2="216" class="solid"></line>
<line x1="160" y1="216" x2="168" y2="216" class="solid"></line>
<line x1="176" y1="216" x2="184" y2="216" class="solid"></line>
<line x1="192" y1="216" x2="200" y2="216" class="solid"></line>
<line x1="208" y1="216" x2="216" y2="216" class="solid"></line>
<line x1="224" y1="216" x2="232" y2="216" class="solid"></line>
<line x1="240" y1="216" x2="248" y2="216" class="solid"></line>
<line x1="256" y1="216" x2="264" y2="216" class="solid"></line>
<line x1="272" y1="216" x2="280" y2="216" class="solid"></line>
<line x1="288" y1="216" x2="296" y2="216" class="solid"></line>
<line x1="304" y1="216" x2="312" y2="216" class="solid"></line>
<line x1="320" y1="216" x2="328" y2="216" class="solid"></line>
<line x1="336" y1="216" x2="344" y2="216" class="solid"></line>
<line x1="352" y1="216" x2="360" y2="216" class="solid"></line>
<line x1="368" y1="216" x2="376" y2="216" class="solid"></line>
<line x1="384" y1="216" x2="392" y2="216" class="solid"></line>
<line x1="144" y1="840" x2="152" y2="840" class="solid"></line>
<line x1="160" y1="840" x2="168" y2="840" class="solid"></line>
<line x1="176" y1="840" x2="184" y2="840" class="solid"></line>
<line x1="192" y1="840" x2="200" y2="840" class="solid"></line>
<line x1="208" y1="840" x2="216" y2="840" class="solid"></line>
<line x1="224" y1="840" x2="232" y2="840" class="solid"></line>
<line x1="240" y1="840" x2="248" y2="840" class="solid"></line>
<line x1="256" y1="840" x2="264" y2="840" class="solid"></line>
<line x1="272" y1="840" x2="280" y2="840" class="solid"></line>
<line x1="288" y1="840" x2="296" y2="840" class="solid"></line>
<line x1="304" y1="840" x2="312" y2="840" class="solid"></line>
<line x1="320" y1="840" x2="328" y2="840" class="solid"></line>
<line x1="336" y1="840" x2="344" y2="840" class="solid"></line>
<line x1="352" y1="840" x2="360" y2="840" class="solid"></line>
<line x1="368" y1="840" x2="376" y2="840" class="solid"></line>
<line x1="384" y1="840" x2="392" y2="840" class="solid"></line>
<text x="514" y="44" >użytkownik</text>
<text x="514" y="108" >wpisuje w przeglądarce: www.onet.pl</text>
<text x="146" y="156" >przestrzeń użytkownika</text>
<text x="410" y="156" >warstwa</text>
<text x="514" y="156" >żądanie http</text>
<text x="410" y="172" >aplikacji</text>
<text x="506" y="172" >GET /</text>
<text x="506" y="188" >Host www.onet.pl</text>
<text x="146" y="236" >jądro Linux</text>
<text x="410" y="236" >warstwa</text>
<text x="562" y="236" >socket</text>
<text x="410" y="252" >transportowa</text>
<text x="514" y="284" >nagłówek tcp</text>
<text x="506" y="300" >src: 230431</text>
<text x="506" y="316" >dst: 80</text>
<text x="514" y="332" >żądanie http</text>
<text x="506" y="348" >GET /</text>
<text x="506" y="364" >Host www.onet.pl</text>
<text x="410" y="412" >warstwa</text>
<text x="410" y="428" >sieciowa</text>
<text x="514" y="428" >nagłówek ip</text>
<text x="506" y="444" >src: 10.0.0.23</text>
<text x="506" y="460" >dst: 75.2.92.173</text>
<text x="514" y="476" >nagłówek tcp</text>
<text x="506" y="492" >src: 230431</text>
<text x="506" y="508" >dst: 80</text>
<text x="514" y="524" >żądanie http</text>
<text x="506" y="540" >GET /</text>
<text x="506" y="556" >Host www.onet.pl</text>
<text x="410" y="604" >warstwa</text>
<text x="410" y="620" >łącza danych</text>
<text x="514" y="636" >nagłówek ethernet</text>
<text x="506" y="652" >src DE:AD:FB:FD:FD</text>
<text x="506" y="668" >dst AE:DE:65:54:10</text>
<text x="514" y="684" >nagłówek ip</text>
<text x="506" y="700" >src: 10.0.0.23</text>
<text x="506" y="716" >dst: 75.2.92.173</text>
<text x="514" y="732" >nagłówek tcp</text>
<text x="506" y="748" >src: 230431</text>
<text x="506" y="764" >dst: 80</text>
<text x="514" y="780" >żądanie http</text>
<text x="506" y="796" >GET /</text>
<text x="506" y="812" >Host www.onet.pl</text>
<text x="146" y="860" >karta sieciowa</text>
<text x="410" y="860" >warstwa</text>
<text x="410" y="876" >fizyczna</text>
<g>
<line x1="480" y1="40" x2="504" y2="40" class="solid"></line>
<line x1="492" y1="40" x2="492" y2="56" class="solid"></line>
<line x1="492" y1="56" x2="480" y2="80" class="solid"></line>
<line x1="492" y1="56" x2="504" y2="80" class="solid"></line>
</g>
<g>
<line x1="492" y1="96" x2="492" y2="116" class="solid"></line>
<polygon points="488,116 496,116 492,128" class="filled"></polygon>
</g>
<g>
<line x1="404" y1="136" x2="700" y2="136" class="solid"></line>
<line x1="404" y1="136" x2="404" y2="936" class="solid"></line>
<line x1="700" y1="136" x2="700" y2="936" class="solid"></line>
<line x1="404" y1="584" x2="700" y2="584" class="solid"></line>
<line x1="700" y1="872" x2="732" y2="872" class="solid"></line>
<line x1="732" y1="872" x2="732" y2="904" class="solid"></line>
<line x1="700" y1="904" x2="732" y2="904" class="solid"></line>
<line x1="404" y1="936" x2="700" y2="936" class="solid"></line>
<line x1="624" y1="152" x2="676" y2="152" class="solid"></line>
<line x1="676" y1="152" x2="676" y2="200" class="solid"></line>
<line x1="500" y1="200" x2="676" y2="200" class="solid"></line>
<line x1="580" y1="200" x2="580" y2="216" class="solid"></line>
<line x1="404" y1="216" x2="700" y2="216" class="solid"></line>
<line x1="548" y1="216" x2="548" y2="248" class="solid"></line>
<line x1="628" y1="216" x2="628" y2="248" class="solid"></line>
<line x1="548" y1="248" x2="628" y2="248" class="solid"></line>
<line x1="624" y1="280" x2="676" y2="280" class="solid"></line>
<line x1="676" y1="280" x2="676" y2="376" class="solid"></line>
<line x1="624" y1="328" x2="676" y2="328" class="solid"></line>
<line x1="500" y1="376" x2="676" y2="376" class="solid"></line>
<line x1="580" y1="376" x2="580" y2="392" class="solid"></line>
<line x1="404" y1="392" x2="700" y2="392" class="solid"></line>
<line x1="664" y1="632" x2="676" y2="632" class="solid"></line>
<line x1="676" y1="632" x2="676" y2="824" class="solid"></line>
<line x1="616" y1="680" x2="676" y2="680" class="solid"></line>
<line x1="624" y1="728" x2="676" y2="728" class="solid"></line>
<line x1="624" y1="776" x2="676" y2="776" class="solid"></line>
<line x1="500" y1="824" x2="676" y2="824" class="solid"></line>
<line x1="580" y1="824" x2="580" y2="840" class="solid"></line>
<line x1="404" y1="840" x2="700" y2="840" class="solid"></line>
<line x1="500" y1="152" x2="512" y2="152" class="solid"></line>
<line x1="500" y1="152" x2="500" y2="200" class="solid"></line>
<line x1="500" y1="280" x2="512" y2="280" class="solid"></line>
<line x1="500" y1="280" x2="500" y2="376" class="solid"></line>
<line x1="500" y1="328" x2="512" y2="328" class="solid"></line>
<line x1="500" y1="632" x2="512" y2="632" class="solid"></line>
<line x1="500" y1="632" x2="500" y2="824" class="solid"></line>
<line x1="500" y1="680" x2="512" y2="680" class="solid"></line>
<line x1="500" y1="728" x2="512" y2="728" class="solid"></line>
<line x1="500" y1="776" x2="512" y2="776" class="solid"></line>
</g>
<g>
<line x1="580" y1="256" x2="580" y2="260" class="solid"></line>
<polygon points="576,260 584,260 580,272" class="filled"></polygon>
</g>
<g>
<line x1="580" y1="400" x2="580" y2="404" class="solid"></line>
<polygon points="576,404 584,404 580,416" class="filled"></polygon>
</g>
<g>
<line x1="500" y1="424" x2="512" y2="424" class="solid"></line>
<line x1="500" y1="424" x2="500" y2="568" class="solid"></line>
<line x1="500" y1="472" x2="512" y2="472" class="solid"></line>
<line x1="500" y1="520" x2="512" y2="520" class="solid"></line>
<line x1="616" y1="424" x2="676" y2="424" class="solid"></line>
<line x1="676" y1="424" x2="676" y2="568" class="solid"></line>
<line x1="624" y1="472" x2="676" y2="472" class="solid"></line>
<line x1="624" y1="520" x2="676" y2="520" class="solid"></line>
<line x1="500" y1="568" x2="676" y2="568" class="solid"></line>
<line x1="580" y1="568" x2="580" y2="612" class="solid"></line>
<polygon points="576,612 584,612 580,624" class="filled"></polygon>
</g>
<g>
<line x1="580" y1="848" x2="580" y2="852" class="solid"></line>
<polygon points="576,852 584,852 580,864" class="filled"></polygon>
</g>
<g>
<line x1="500" y1="872" x2="676" y2="872" class="solid"></line>
<line x1="500" y1="872" x2="500" y2="920" class="solid"></line>
<line x1="676" y1="872" x2="676" y2="920" class="solid"></line>
<line x1="676" y1="888" x2="688" y2="888" class="solid"></line>
<polygon points="688,884 696,888 688,892" class="filled"></polygon>
<line x1="500" y1="920" x2="676" y2="920" class="solid"></line>
</g>
<g>
<path d="M 744,872 A 4,4 0,0,1 748,876" class="nofill"></path>
<line x1="748" y1="876" x2="748" y2="900" class="solid"></line>
<path d="M 748,900 A 4,4 0,0,0 752,904" class="nofill"></path>
<line x1="752" y1="904" x2="768" y2="904" class="solid"></line>
<path d="M 776,872 A 4,4 0,0,0 772,876" class="nofill"></path>
<line x1="772" y1="876" x2="772" y2="900" class="solid"></line>
<line x1="776" y1="872" x2="792" y2="872" class="solid"></line>
<path d="M 792,872 A 4,4 0,0,1 796,876" class="nofill"></path>
<line x1="796" y1="876" x2="796" y2="900" class="solid"></line>
<path d="M 772,900 A 4,4 0,0,1 768,904" class="nofill"></path>
<path d="M 796,900 A 4,4 0,0,0 800,904" class="nofill"></path>
<line x1="800" y1="904" x2="816" y2="904" class="solid"></line>
<path d="M 824,872 A 4,4 0,0,0 820,876" class="nofill"></path>
<line x1="820" y1="876" x2="820" y2="900" class="solid"></line>
<line x1="824" y1="872" x2="840" y2="872" class="solid"></line>
<path d="M 840,872 A 4,4 0,0,1 844,876" class="nofill"></path>
<line x1="844" y1="876" x2="844" y2="900" class="solid"></line>
<path d="M 820,900 A 4,4 0,0,1 816,904" class="nofill"></path>
<path d="M 844,900 A 4,4 0,0,0 848,904" class="nofill"></path>
<line x1="848" y1="904" x2="864" y2="904" class="solid"></line>
<path d="M 872,872 A 4,4 0,0,0 868,876" class="nofill"></path>
<line x1="868" y1="876" x2="868" y2="900" class="solid"></line>
<line x1="872" y1="872" x2="888" y2="872" class="solid"></line>
<path d="M 888,872 A 4,4 0,0,1 892,876" class="nofill"></path>
<line x1="892" y1="876" x2="892" y2="900" class="solid"></line>
<path d="M 868,900 A 4,4 0,0,1 864,904" class="nofill"></path>
<path d="M 892,900 A 4,4 0,0,0 896,904" class="nofill"></path>
<line x1="896" y1="904" x2="912" y2="904" class="solid"></line>
<path d="M 920,872 A 4,4 0,0,0 916,876" class="nofill"></path>
<line x1="916" y1="876" x2="916" y2="900" class="solid"></line>
<line x1="920" y1="872" x2="936" y2="872" class="solid"></line>
<path d="M 936,872 A 4,4 0,0,1 940,876" class="nofill"></path>
<line x1="940" y1="876" x2="940" y2="900" class="solid"></line>
<path d="M 916,900 A 4,4 0,0,1 912,904" class="nofill"></path>
<path d="M 940,900 A 4,4 0,0,0 944,904" class="nofill"></path>
<line x1="944" y1="904" x2="960" y2="904" class="solid"></line>
<path d="M 968,872 A 4,4 0,0,0 964,876" class="nofill"></path>
<line x1="964" y1="876" x2="964" y2="900" class="solid"></line>
<line x1="968" y1="872" x2="984" y2="872" class="solid"></line>
<path d="M 984,872 A 4,4 0,0,1 988,876" class="nofill"></path>
<line x1="988" y1="876" x2="988" y2="900" class="solid"></line>
<path d="M 964,900 A 4,4 0,0,1 960,904" class="nofill"></path>
<path d="M 988,900 A 4,4 0,0,0 992,904" class="nofill"></path>
<line x1="992" y1="904" x2="1008" y2="904" class="solid"></line>
<path d="M 1016,872 A 4,4 0,0,0 1012,876" class="nofill"></path>
<line x1="1012" y1="876" x2="1012" y2="900" class="solid"></line>
<line x1="1016" y1="872" x2="1032" y2="872" class="solid"></line>
<path d="M 1032,872 A 4,4 0,0,1 1036,876" class="nofill"></path>
<line x1="1036" y1="876" x2="1036" y2="900" class="solid"></line>
<path d="M 1012,900 A 4,4 0,0,1 1008,904" class="nofill"></path>
<path d="M 1036,900 A 4,4 0,0,0 1040,904" class="nofill"></path>
<line x1="1040" y1="904" x2="1056" y2="904" class="solid"></line>
<path d="M 1064,872 A 4,4 0,0,0 1060,876" class="nofill"></path>
<line x1="1060" y1="876" x2="1060" y2="900" class="solid"></line>
<line x1="1064" y1="872" x2="1080" y2="872" class="solid"></line>
<path d="M 1080,872 A 4,4 0,0,1 1084,876" class="nofill"></path>
<line x1="1084" y1="876" x2="1084" y2="900" class="solid"></line>
<path d="M 1060,900 A 4,4 0,0,1 1056,904" class="nofill"></path>
<path d="M 1084,900 A 4,4 0,0,0 1088,904" class="nofill"></path>
<line x1="1088" y1="904" x2="1104" y2="904" class="solid"></line>
<path d="M 1112,872 A 4,4 0,0,0 1108,876" class="nofill"></path>
<line x1="1108" y1="876" x2="1108" y2="900" class="solid"></line>
<line x1="1112" y1="872" x2="1128" y2="872" class="solid"></line>
<path d="M 1128,872 A 4,4 0,0,1 1132,876" class="nofill"></path>
<line x1="1132" y1="876" x2="1132" y2="900" class="solid"></line>
<path d="M 1108,900 A 4,4 0,0,1 1104,904" class="nofill"></path>
<path d="M 1132,900 A 4,4 0,0,0 1136,904" class="nofill"></path>
<line x1="1136" y1="904" x2="1152" y2="904" class="solid"></line>
<path d="M 1160,872 A 4,4 0,0,0 1156,876" class="nofill"></path>
<line x1="1156" y1="876" x2="1156" y2="900" class="solid"></line>
<line x1="1160" y1="872" x2="1176" y2="872" class="solid"></line>
<path d="M 1176,872 A 4,4 0,0,1 1180,876" class="nofill"></path>
<line x1="1180" y1="876" x2="1180" y2="900" class="solid"></line>
<path d="M 1156,900 A 4,4 0,0,1 1152,904" class="nofill"></path>
<path d="M 1180,900 A 4,4 0,0,0 1184,904" class="nofill"></path>
</g>
</svg>
