<svg xmlns="http://www.w3.org/2000/svg" width="616" height="496">
<style>
line, path, circle, rect, polygon{stroke:black;stroke-width:1;stroke-opacity:1;fill-opacity:1;stroke-linecap:round;stroke-linejoin:miter;}text{font-family:Iosevka Fixed, monospace;font-size:14px;}rect.backdrop{stroke:none;fill:white;}.broken{stroke-dasharray:8;}.filled{fill:black;}.bg_filled{fill:white;}.nofill{fill:white;}.end_marked_arrow{marker-end:url(#arrow);}.start_marked_arrow{marker-start:url(#arrow);}.end_marked_diamond{marker-end:url(#diamond);}.start_marked_diamond{marker-start:url(#diamond);}.end_marked_circle{marker-end:url(#circle);}.start_marked_circle{marker-start:url(#circle);}.end_marked_open_circle{marker-end:url(#open_circle);}.start_marked_open_circle{marker-start:url(#open_circle);}.end_marked_big_open_circle{marker-end:url(#big_open_circle);}.start_marked_big_open_circle{marker-start:url(#big_open_circle);}
<!--separator-->
.r{  fill: #F44336;  }
.g{  fill: #4CAF50;  }
.b{  fill: #2196F3;  }
.o{  fill: #FF9800;  }
.y{  fill: #FFEB3B;  }
.c{  fill: #00BCD4;  }
.m{  fill: #9C27B0;  }
.k{  fill: #000000;  }
</style>
<defs>
<marker id="arrow" viewBox="-2 -2 8 8" refX="4" refY="2" markerWidth="7" markerHeight="7" orient="auto-start-reverse">
<polygon points="0,0 0,4 4,2 0,0"></polygon>
</marker>
<marker id="diamond" viewBox="-2 -2 8 8" refX="4" refY="2" markerWidth="7" markerHeight="7" orient="auto-start-reverse">
<polygon points="0,2 2,0 4,2 2,4 0,2"></polygon>
</marker>
<marker id="circle" viewBox="0 0 8 8" refX="4" refY="4" markerWidth="7" markerHeight="7" orient="auto-start-reverse">
<circle cx="4" cy="4" r="2" class="filled"></circle>
</marker>
<marker id="open_circle" viewBox="0 0 8 8" refX="4" refY="4" markerWidth="7" markerHeight="7" orient="auto-start-reverse">
<circle cx="4" cy="4" r="2" class="bg_filled"></circle>
</marker>
<marker id="big_open_circle" viewBox="0 0 8 8" refX="4" refY="4" markerWidth="7" markerHeight="7" orient="auto-start-reverse">
<circle cx="4" cy="4" r="3" class="bg_filled"></circle>
</marker>
</defs>
<rect class="backdrop" x="0" y="0" width="616" height="496"></rect>
<rect x="4" y="88" width="96" height="32" class="solid nofill" rx="4"></rect>
<text x="26" y="108" >int x;</text>
<text x="138" y="28" >0x0000</text>
<text x="522" y="76" >0</text>
<line x1="112" y1="104" x2="120" y2="104" class="solid"></line>
<line x1="128" y1="104" x2="136" y2="104" class="solid"></line>
<line x1="144" y1="104" x2="152" y2="104" class="solid"></line>
<line x1="160" y1="104" x2="168" y2="104" class="solid"></line>
<line x1="176" y1="104" x2="184" y2="104" class="solid"></line>
<text x="266" y="124" >A</text>
<text x="266" y="236" >B</text>
<text x="522" y="284" >1</text>
<text x="266" y="380" >C</text>
<text x="522" y="444" >2</text>
<text x="210" y="12" >pamięć wirtualna</text>
<text x="458" y="12" >pamięć fizyczna</text>
<g>
<line x1="196" y1="24" x2="356" y2="24" class="solid"></line>
<line x1="196" y1="24" x2="196" y2="472" class="solid"></line>
<line x1="356" y1="24" x2="356" y2="472" class="solid"></line>
<line x1="196" y1="88" x2="356" y2="88" class="solid"></line>
<line x1="212" y1="88" x2="212" y2="120" class="solid"></line>
<line x1="196" y1="120" x2="212" y2="120" class="solid"></line>
<line x1="356" y1="120" x2="392" y2="120" class="solid"></line>
<line x1="196" y1="152" x2="356" y2="152" class="solid"></line>
<line x1="196" y1="200" x2="356" y2="200" class="solid"></line>
<line x1="356" y1="232" x2="376" y2="232" class="solid"></line>
<path d="M 376,232 A 4,4 0,0,1 380,236" class="nofill"></path>
<line x1="380" y1="236" x2="380" y2="276" class="solid"></line>
<line x1="196" y1="264" x2="356" y2="264" class="solid"></line>
<path d="M 380,276 A 4,4 0,0,0 384,280" class="nofill"></path>
<line x1="384" y1="280" x2="432" y2="280" class="solid"></line>
<polygon points="432,276 440,280 432,284" class="filled"></polygon>
<line x1="196" y1="344" x2="356" y2="344" class="solid"></line>
<line x1="356" y1="376" x2="400" y2="376" class="solid"></line>
<path d="M 400,376 A 4,4 0,0,1 404,380" class="nofill"></path>
<line x1="404" y1="380" x2="404" y2="436" class="solid"></line>
<line x1="196" y1="408" x2="356" y2="408" class="solid"></line>
<path d="M 404,436 A 4,4 0,0,0 408,440" class="nofill"></path>
<line x1="408" y1="440" x2="432" y2="440" class="solid"></line>
<polygon points="432,436 440,440 432,444" class="filled"></polygon>
<line x1="196" y1="472" x2="356" y2="472" class="solid"></line>
<path d="M 400,72 A 4,4 0,0,0 396,76" class="nofill"></path>
<line x1="396" y1="76" x2="396" y2="116" class="solid"></line>
<line x1="400" y1="72" x2="432" y2="72" class="solid"></line>
<polygon points="432,68 440,72 432,76" class="filled"></polygon>
<path d="M 396,116 A 4,4 0,0,1 392,120" class="nofill"></path>
</g>
<g>
<line x1="444" y1="24" x2="604" y2="24" class="solid"></line>
<line x1="444" y1="24" x2="444" y2="472" class="solid"></line>
<line x1="604" y1="24" x2="604" y2="472" class="solid"></line>
<line x1="444" y1="40" x2="604" y2="40" class="solid"></line>
<line x1="444" y1="104" x2="604" y2="104" class="solid"></line>
<line x1="444" y1="248" x2="604" y2="248" class="solid"></line>
<line x1="444" y1="312" x2="604" y2="312" class="solid"></line>
<line x1="444" y1="408" x2="604" y2="408" class="solid"></line>
<line x1="444" y1="472" x2="604" y2="472" class="solid"></line>
</g>
</svg>
