<svg xmlns="http://www.w3.org/2000/svg" width="944" height="400">
    <style>
        line, path, circle, rect, polygon{stroke:black;stroke-width:1;stroke-opacity:1;fill-opacity:1;stroke-linecap:round;stroke-linejoin:miter;}text{font-family:Iosevka Fixed, monospace;font-size:14px;}rect.backdrop{stroke:none;fill:white;}.broken{stroke-dasharray:8;}.filled{fill:black;}.bg_filled{fill:white;}.nofill{fill:white;}.end_marked_arrow{marker-end:url(#arrow);}.start_marked_arrow{marker-start:url(#arrow);}.end_marked_diamond{marker-end:url(#diamond);}.start_marked_diamond{marker-start:url(#diamond);}.end_marked_circle{marker-end:url(#circle);}.start_marked_circle{marker-start:url(#circle);}.end_marked_open_circle{marker-end:url(#open_circle);}.start_marked_open_circle{marker-start:url(#open_circle);}.end_marked_big_open_circle{marker-end:url(#big_open_circle);}.start_marked_big_open_circle{marker-start:url(#big_open_circle);}
        <!--separator-->
        .r{  fill: #F44336;  }
.g{  fill: #4CAF50;  }
.b{  fill: #2196F3;  }
.o{  fill: #FF9800;  }
.y{  fill: #FFEB3B;  }
.c{  fill: #00BCD4;  }
.m{  fill: #9C27B0;  }
.k{  fill: #000000;  }
    </style>
    <defs>
        <marker id="arrow" viewBox="-2 -2 8 8" refX="4" refY="2" markerWidth="7" markerHeight="7" orient="auto-start-reverse">
            <polygon points="0,0 0,4 4,2 0,0"></polygon>
        </marker>
        <marker id="diamond" viewBox="-2 -2 8 8" refX="4" refY="2" markerWidth="7" markerHeight="7" orient="auto-start-reverse">
            <polygon points="0,2 2,0 4,2 2,4 0,2"></polygon>
        </marker>
        <marker id="circle" viewBox="0 0 8 8" refX="4" refY="4" markerWidth="7" markerHeight="7" orient="auto-start-reverse">
            <circle cx="4" cy="4" r="2" class="filled"></circle>
        </marker>
        <marker id="open_circle" viewBox="0 0 8 8" refX="4" refY="4" markerWidth="7" markerHeight="7" orient="auto-start-reverse">
            <circle cx="4" cy="4" r="2" class="bg_filled"></circle>
        </marker>
        <marker id="big_open_circle" viewBox="0 0 8 8" refX="4" refY="4" markerWidth="7" markerHeight="7" orient="auto-start-reverse">
            <circle cx="4" cy="4" r="3" class="bg_filled"></circle>
        </marker>
    </defs>
    <rect class="backdrop" x="0" y="0" width="944" height="400"></rect>
    <text x="130" y="28" >cooperative</text>
    <text x="610" y="28" >preemptive</text>
    <text x="450" y="268" >vs</text>
    <text x="930" y="364" >.</text>
    <text x="274" y="76" >Instrukcja 1</text>
    <text x="522" y="76" >Instrukcja 1</text>
    <text x="698" y="76" >wywłaszczenie możliwe</text>
    <text x="26" y="108" >wywłaszczenie możliwe</text>
    <text x="274" y="108" >YIELD()</text>
    <text x="522" y="108" >Instrukcja 2</text>
    <text x="698" y="108" >wywłaszczenie możliwe</text>
    <text x="274" y="140" >Instrukcja 2</text>
    <text x="522" y="140" >Instrukcja 3</text>
    <text x="698" y="140" >wywłaszczenie możliwe</text>
    <text x="274" y="172" >Instrukcja 3</text>
    <text x="522" y="172" >Instrukcja 4</text>
    <text x="698" y="172" >wywłaszczenie możliwe</text>
    <text x="26" y="204" >wywłaszczenie możliwe</text>
    <text x="274" y="204" >YIELD()</text>
    <text x="522" y="204" >Instrukcja 5</text>
    <text x="698" y="204" >wywłaszczenie możliwe</text>
    <text x="274" y="236" >Instrukcja 4</text>
    <text x="522" y="236" >Instrukcja 6</text>
    <text x="698" y="236" >wywłaszczenie możliwe</text>
    <text x="26" y="268" >wywłaszczenie możliwe</text>
    <text x="274" y="268" >YIELD()</text>
    <text x="522" y="268" >Instrukcja 7</text>
    <text x="698" y="268" >wywłaszczenie możliwe</text>
    <text x="274" y="300" >Instrukcja 5</text>
    <text x="522" y="300" >Instrukcja 8</text>
    <text x="698" y="300" >wywłaszczenie możliwe</text>
    <text x="274" y="332" >Instrukcja 6</text>
    <text x="522" y="332" >Instrukcja 9</text>
    <text x="698" y="332" >wywłaszczenie możliwe</text>
    <text x="26" y="364" >wywłaszczenie możliwe</text>
    <text x="274" y="364" >YIELD()</text>
    <text x="522" y="364" >Instrukcja 10</text>
    <text x="698" y="364" >wywłaszczenie możliwe</text>
    <g>
        <line x1="268" y1="56" x2="396" y2="56" class="solid"></line>
        <line x1="268" y1="56" x2="268" y2="376" class="solid"></line>
        <line x1="396" y1="56" x2="396" y2="376" class="solid"></line>
        <line x1="268" y1="88" x2="396" y2="88" class="solid"></line>
        <line x1="268" y1="120" x2="396" y2="120" class="solid"></line>
        <line x1="268" y1="152" x2="396" y2="152" class="solid"></line>
        <line x1="268" y1="184" x2="396" y2="184" class="solid"></line>
        <line x1="268" y1="216" x2="396" y2="216" class="solid"></line>
        <line x1="268" y1="248" x2="396" y2="248" class="solid"></line>
        <line x1="268" y1="280" x2="396" y2="280" class="solid"></line>
        <line x1="268" y1="312" x2="396" y2="312" class="solid"></line>
        <line x1="268" y1="344" x2="396" y2="344" class="solid"></line>
        <line x1="268" y1="376" x2="396" y2="376" class="solid"></line>
    </g>
    <g>
        <line x1="516" y1="56" x2="644" y2="56" class="solid"></line>
        <line x1="516" y1="56" x2="516" y2="376" class="solid"></line>
        <line x1="644" y1="56" x2="644" y2="376" class="solid"></line>
        <line x1="516" y1="88" x2="644" y2="88" class="solid"></line>
        <line x1="516" y1="120" x2="644" y2="120" class="solid"></line>
        <line x1="516" y1="152" x2="644" y2="152" class="solid"></line>
        <line x1="516" y1="184" x2="644" y2="184" class="solid"></line>
        <line x1="516" y1="216" x2="644" y2="216" class="solid"></line>
        <line x1="516" y1="248" x2="644" y2="248" class="solid"></line>
        <line x1="516" y1="280" x2="644" y2="280" class="solid"></line>
        <line x1="516" y1="312" x2="644" y2="312" class="solid"></line>
        <line x1="516" y1="344" x2="644" y2="344" class="solid"></line>
        <line x1="516" y1="376" x2="644" y2="376" class="solid"></line>
    </g>
    <g>
        <polygon points="664,68 656,72 664,76" class="filled"></polygon>
        <line x1="664" y1="72" x2="688" y2="72" class="solid"></line>
    </g>
    <g>
        <line x1="224" y1="104" x2="248" y2="104" class="solid"></line>
        <polygon points="248,100 256,104 248,108" class="filled"></polygon>
    </g>
    <g>
        <polygon points="664,100 656,104 664,108" class="filled"></polygon>
        <line x1="664" y1="104" x2="688" y2="104" class="solid"></line>
    </g>
    <g>
        <polygon points="664,132 656,136 664,140" class="filled"></polygon>
        <line x1="664" y1="136" x2="688" y2="136" class="solid"></line>
    </g>
    <g>
        <polygon points="664,164 656,168 664,172" class="filled"></polygon>
        <line x1="664" y1="168" x2="688" y2="168" class="solid"></line>
    </g>
    <g>
        <line x1="224" y1="200" x2="248" y2="200" class="solid"></line>
        <polygon points="248,196 256,200 248,204" class="filled"></polygon>
    </g>
    <g>
        <polygon points="664,196 656,200 664,204" class="filled"></polygon>
        <line x1="664" y1="200" x2="688" y2="200" class="solid"></line>
    </g>
    <g>
        <polygon points="664,228 656,232 664,236" class="filled"></polygon>
        <line x1="664" y1="232" x2="688" y2="232" class="solid"></line>
    </g>
    <g>
        <line x1="224" y1="264" x2="248" y2="264" class="solid"></line>
        <polygon points="248,260 256,264 248,268" class="filled"></polygon>
    </g>
    <g>
        <polygon points="664,260 656,264 664,268" class="filled"></polygon>
        <line x1="664" y1="264" x2="688" y2="264" class="solid"></line>
    </g>
    <g>
        <polygon points="664,292 656,296 664,300" class="filled"></polygon>
        <line x1="664" y1="296" x2="688" y2="296" class="solid"></line>
    </g>
    <g>
        <polygon points="664,324 656,328 664,332" class="filled"></polygon>
        <line x1="664" y1="328" x2="688" y2="328" class="solid"></line>
    </g>
    <g>
        <line x1="224" y1="360" x2="248" y2="360" class="solid"></line>
        <polygon points="248,356 256,360 248,364" class="filled"></polygon>
    </g>
    <g>
        <polygon points="664,356 656,360 664,364" class="filled"></polygon>
        <line x1="664" y1="360" x2="688" y2="360" class="solid"></line>
    </g>
</svg>
