<svg xmlns="http://www.w3.org/2000/svg" width="1208" height="320">
<style>
line, path, circle, rect, polygon{stroke:black;stroke-width:1;stroke-opacity:1;fill-opacity:1;stroke-linecap:round;stroke-linejoin:miter;}text{font-family:Iosevka Fixed, monospace;font-size:14px;}rect.backdrop{stroke:none;fill:white;}.broken{stroke-dasharray:8;}.filled{fill:black;}.bg_filled{fill:white;}.nofill{fill:white;}.end_marked_arrow{marker-end:url(#arrow);}.start_marked_arrow{marker-start:url(#arrow);}.end_marked_diamond{marker-end:url(#diamond);}.start_marked_diamond{marker-start:url(#diamond);}.end_marked_circle{marker-end:url(#circle);}.start_marked_circle{marker-start:url(#circle);}.end_marked_open_circle{marker-end:url(#open_circle);}.start_marked_open_circle{marker-start:url(#open_circle);}.end_marked_big_open_circle{marker-end:url(#big_open_circle);}.start_marked_big_open_circle{marker-start:url(#big_open_circle);}
<!--separator-->
.r{  fill: #F44336;  }
.g{  fill: #4CAF50;  }
.b{  fill: #2196F3;  }
.o{  fill: #FF9800;  }
.y{  fill: #FFEB3B;  }
.c{  fill: #00BCD4;  }
.m{  fill: #9C27B0;  }
.k{  fill: #000000;  }
</style>
<defs>
<marker id="arrow" viewBox="-2 -2 8 8" refX="4" refY="2" markerWidth="7" markerHeight="7" orient="auto-start-reverse">
<polygon points="0,0 0,4 4,2 0,0"></polygon>
</marker>
<marker id="diamond" viewBox="-2 -2 8 8" refX="4" refY="2" markerWidth="7" markerHeight="7" orient="auto-start-reverse">
<polygon points="0,2 2,0 4,2 2,4 0,2"></polygon>
</marker>
<marker id="circle" viewBox="0 0 8 8" refX="4" refY="4" markerWidth="7" markerHeight="7" orient="auto-start-reverse">
<circle cx="4" cy="4" r="2" class="filled"></circle>
</marker>
<marker id="open_circle" viewBox="0 0 8 8" refX="4" refY="4" markerWidth="7" markerHeight="7" orient="auto-start-reverse">
<circle cx="4" cy="4" r="2" class="bg_filled"></circle>
</marker>
<marker id="big_open_circle" viewBox="0 0 8 8" refX="4" refY="4" markerWidth="7" markerHeight="7" orient="auto-start-reverse">
<circle cx="4" cy="4" r="3" class="bg_filled"></circle>
</marker>
</defs>
<rect class="backdrop" x="0" y="0" width="1208" height="320"></rect>
<rect x="92" y="8" width="320" height="288" class="solid nofill o" rx="4"></rect>
<text x="106" y="44" >struct task_struct {</text>
<text x="138" y="60" >struct list_head {</text>
<text x="170" y="76" >struct list_head *next;</text>
<text x="170" y="92" >struct list_head *prev;</text>
<text x="138" y="108" >} tasks;</text>
<text x="138" y="124" >pid_t pid;</text>
<text x="138" y="140" >struct mm_struct *mm</text>
<text x="138" y="156" >struct task_struct *real_parent;</text>
<text x="138" y="172" >struct task_struct *parent;</text>
<text x="138" y="188" >struct list_head children;</text>
<text x="138" y="204" >struct sigpending pending;</text>
<text x="138" y="220" >struct files_struct *files;</text>
<text x="138" y="236" >void *stack</text>
<text x="138" y="252" >...</text>
<text x="106" y="268" >};</text>
<rect x="452" y="8" width="320" height="288" class="solid nofill y" rx="4"></rect>
<text x="466" y="44" >struct task_struct {</text>
<text x="498" y="60" >struct list_head {</text>
<text x="530" y="76" >struct list_head *next;</text>
<text x="530" y="92" >struct list_head *prev;</text>
<text x="498" y="108" >} tasks;</text>
<text x="498" y="124" >pid_t pid;</text>
<text x="498" y="140" >struct mm_struct *mm</text>
<text x="498" y="156" >struct task_struct *real_parent;</text>
<text x="498" y="172" >struct task_struct *parent;</text>
<text x="498" y="188" >struct list_head children;</text>
<text x="498" y="204" >struct sigpending pending;</text>
<text x="498" y="220" >struct files_struct *files;</text>
<text x="498" y="236" >void *stack</text>
<text x="498" y="252" >...</text>
<text x="466" y="268" >};</text>
<rect x="812" y="8" width="320" height="288" class="solid nofill c" rx="4"></rect>
<text x="826" y="44" >struct task_struct {</text>
<text x="858" y="60" >struct list_head {</text>
<text x="890" y="76" >struct list_head *next;</text>
<text x="890" y="92" >struct list_head *prev;</text>
<text x="858" y="108" >} tasks;</text>
<text x="858" y="124" >pid_t pid;</text>
<text x="858" y="140" >struct mm_struct *mm</text>
<text x="858" y="156" >struct task_struct *real_parent;</text>
<text x="858" y="172" >struct task_struct *parent;</text>
<text x="858" y="188" >struct list_head children;</text>
<text x="858" y="204" >struct sigpending pending;</text>
<text x="858" y="220" >struct files_struct *files;</text>
<text x="858" y="236" >void *stack</text>
<text x="858" y="252" >...</text>
<text x="826" y="268" >};</text>
<text x="1178" y="76" >...</text>
<text x="26" y="92" >...</text>
<g>
<line x1="368" y1="72" x2="440" y2="72" class="solid"></line>
<polygon points="440,68 448,72 440,76" class="filled"></polygon>
</g>
<g>
<line x1="728" y1="72" x2="800" y2="72" class="solid"></line>
<polygon points="800,68 808,72 800,76" class="filled"></polygon>
</g>
<g>
<line x1="1088" y1="72" x2="1160" y2="72" class="solid"></line>
<polygon points="1160,68 1168,72 1160,76" class="filled"></polygon>
</g>
<g>
<polygon points="64,84 56,88 64,92" class="filled"></polygon>
<line x1="64" y1="88" x2="168" y2="88" class="solid"></line>
</g>
<g>
<polygon points="424,84 416,88 424,92" class="filled"></polygon>
<line x1="424" y1="88" x2="528" y2="88" class="solid"></line>
</g>
<g>
<polygon points="784,84 776,88 784,92" class="filled"></polygon>
<line x1="784" y1="88" x2="888" y2="88" class="solid"></line>
</g>
</svg>
