<svg xmlns="http://www.w3.org/2000/svg" width="1120" height="672">
    <style>
        line, path, circle, rect, polygon{stroke:black;stroke-width:1;stroke-opacity:1;fill-opacity:1;stroke-linecap:round;stroke-linejoin:miter;}text{font-family:Iosevka Fixed, monospace;font-size:14px;}rect.backdrop{stroke:none;fill:white;}.broken{stroke-dasharray:8;}.filled{fill:black;}.bg_filled{fill:white;}.nofill{fill:white;}.end_marked_arrow{marker-end:url(#arrow);}.start_marked_arrow{marker-start:url(#arrow);}.end_marked_diamond{marker-end:url(#diamond);}.start_marked_diamond{marker-start:url(#diamond);}.end_marked_circle{marker-end:url(#circle);}.start_marked_circle{marker-start:url(#circle);}.end_marked_open_circle{marker-end:url(#open_circle);}.start_marked_open_circle{marker-start:url(#open_circle);}.end_marked_big_open_circle{marker-end:url(#big_open_circle);}.start_marked_big_open_circle{marker-start:url(#big_open_circle);}
        <!--separator-->
        
    </style>
    <defs>
        <marker id="arrow" viewBox="-2 -2 8 8" refX="4" refY="2" markerWidth="7" markerHeight="7" orient="auto-start-reverse">
            <polygon points="0,0 0,4 4,2 0,0"></polygon>
        </marker>
        <marker id="diamond" viewBox="-2 -2 8 8" refX="4" refY="2" markerWidth="7" markerHeight="7" orient="auto-start-reverse">
            <polygon points="0,2 2,0 4,2 2,4 0,2"></polygon>
        </marker>
        <marker id="circle" viewBox="0 0 8 8" refX="4" refY="4" markerWidth="7" markerHeight="7" orient="auto-start-reverse">
            <circle cx="4" cy="4" r="2" class="filled"></circle>
        </marker>
        <marker id="open_circle" viewBox="0 0 8 8" refX="4" refY="4" markerWidth="7" markerHeight="7" orient="auto-start-reverse">
            <circle cx="4" cy="4" r="2" class="bg_filled"></circle>
        </marker>
        <marker id="big_open_circle" viewBox="0 0 8 8" refX="4" refY="4" markerWidth="7" markerHeight="7" orient="auto-start-reverse">
            <circle cx="4" cy="4" r="3" class="bg_filled"></circle>
        </marker>
    </defs>
    <rect class="backdrop" x="0" y="0" width="1120" height="672"></rect>
    <circle cx="100" cy="24" r="8" class="nofill"></circle>
    <text x="354" y="348" >router</text>
    <text x="354" y="364" >10.0.0.1</text>
    <text x="266" y="444" >s</text>
    <text x="354" y="444" >L2</text>
    <text x="506" y="444" >s</text>
    <text x="266" y="460" >w</text>
    <text x="506" y="460" >w</text>
    <text x="266" y="476" >i</text>
    <text x="354" y="476" >AF:21:..</text>
    <text x="506" y="476" >i</text>
    <text x="266" y="492" >t</text>
    <text x="506" y="492" >t</text>
    <text x="266" y="508" >c</text>
    <text x="506" y="508" >c</text>
    <text x="266" y="524" >h</text>
    <text x="506" y="524" >h</text>
    <text x="258" y="556" >L1</text>
    <text x="354" y="556" >L1</text>
    <text x="498" y="556" >L1</text>
    <text x="938" y="284" >23.02.32.32:80</text>
    <line x1="896" y1="296" x2="924" y2="296" class="solid"></line>
    <text x="690" y="348" >router</text>
    <text x="690" y="364" >23.02.32.1</text>
    <text x="602" y="444" >s</text>
    <text x="690" y="444" >L2</text>
    <text x="850" y="444" >s</text>
    <text x="602" y="460" >w</text>
    <text x="850" y="460" >w</text>
    <text x="602" y="476" >i</text>
    <text x="690" y="476" >D3:AE:...</text>
    <text x="850" y="476" >i</text>
    <text x="602" y="492" >t</text>
    <text x="850" y="492" >t</text>
    <text x="602" y="508" >c</text>
    <text x="850" y="508" >c</text>
    <text x="602" y="524" >h</text>
    <text x="850" y="524" >h</text>
    <text x="594" y="556" >L1</text>
    <text x="690" y="556" >L1</text>
    <text x="842" y="556" >L1</text>
    <line x1="204" y1="264" x2="232" y2="264" class="solid"></line>
    <line x1="200" y1="360" x2="216" y2="360" class="solid"></line>
    <line x1="440" y1="360" x2="456" y2="360" class="solid"></line>
    <line x1="784" y1="360" x2="800" y2="360" class="solid"></line>
    <text x="106" y="380" >10.0.0.32</text>
    <line x1="320" y1="392" x2="336" y2="392" class="solid"></line>
    <line x1="656" y1="392" x2="672" y2="392" class="solid"></line>
    <line x1="904" y1="392" x2="920" y2="392" class="solid"></line>
    <text x="554" y="588" >…</text>
    <text x="1058" y="588" >&quot;</text>
    <text x="122" y="108" >wpisuje w pasek adresu: onet.pl</text>
    <text x="26" y="156" >przeglądarka</text>
    <text x="938" y="156" >serwer HTTP onet.pl</text>
    <text x="490" y="236" >GET /</text>
    <text x="26" y="252" >socket TCP</text>
    <text x="490" y="252" >Host: onet.pl</text>
    <text x="938" y="252" >socket TCP</text>
    <text x="50" y="284" >10.0.0.32:43425</text>
    <text x="490" y="316" >HTTP/1.1 200 OK</text>
    <text x="26" y="348" >Warstwa IP</text>
    <text x="938" y="348" >Warstwa IP</text>
    <text x="26" y="444" >Warstwa</text>
    <text x="938" y="444" >Warstwa</text>
    <text x="26" y="460" >lącza danych</text>
    <text x="938" y="460" >łącza danych</text>
    <text x="34" y="476" >DE:AD:B3:EF:22:37</text>
    <text x="938" y="476" >AF:32:21:37:33</text>
    <text x="26" y="556" >Warstwa fizyczna</text>
    <text x="938" y="556" >Warstwa fizyczna</text>
    <g>
        <line x1="88" y1="40" x2="112" y2="40" class="solid"></line>
        <line x1="100" y1="40" x2="100" y2="56" class="solid"></line>
        <line x1="100" y1="56" x2="88" y2="80" class="solid"></line>
        <line x1="100" y1="56" x2="112" y2="80" class="solid"></line>
    </g>
    <g>
        <line x1="100" y1="96" x2="100" y2="116" class="solid"></line>
        <polygon points="96,116 104,116 100,128" class="filled"></polygon>
    </g>
    <g>
        <path d="M 24,136 A 4,4 0,0,0 20,140" class="nofill"></path>
        <line x1="20" y1="140" x2="20" y2="648" class="solid"></line>
        <line x1="24" y1="136" x2="184" y2="136" class="solid"></line>
        <path d="M 184,136 A 4,4 0,0,1 188,140" class="nofill"></path>
        <line x1="188" y1="140" x2="188" y2="648" class="solid"></line>
        <line x1="20" y1="232" x2="188" y2="232" class="solid"></line>
        <line x1="20" y1="328" x2="188" y2="328" class="solid"></line>
        <line x1="20" y1="424" x2="188" y2="424" class="solid"></line>
        <line x1="20" y1="536" x2="188" y2="536" class="solid"></line>
        <line x1="20" y1="648" x2="188" y2="648" class="solid"></line>
    </g>
    <g>
        <line x1="348" y1="328" x2="428" y2="328" class="solid"></line>
        <line x1="348" y1="328" x2="348" y2="648" class="solid"></line>
        <line x1="428" y1="328" x2="428" y2="648" class="solid"></line>
        <line x1="348" y1="424" x2="428" y2="424" class="solid"></line>
        <line x1="348" y1="536" x2="428" y2="536" class="solid"></line>
        <line x1="348" y1="648" x2="428" y2="648" class="solid"></line>
    </g>
    <g>
        <line x1="252" y1="424" x2="284" y2="424" class="solid"></line>
        <line x1="252" y1="424" x2="252" y2="648" class="solid"></line>
        <line x1="284" y1="424" x2="284" y2="648" class="solid"></line>
        <line x1="252" y1="536" x2="284" y2="536" class="solid"></line>
        <line x1="252" y1="648" x2="284" y2="648" class="solid"></line>
    </g>
    <g>
        <line x1="492" y1="424" x2="524" y2="424" class="solid"></line>
        <line x1="492" y1="424" x2="492" y2="648" class="solid"></line>
        <line x1="524" y1="424" x2="524" y2="648" class="solid"></line>
        <line x1="492" y1="536" x2="524" y2="536" class="solid"></line>
        <line x1="492" y1="648" x2="524" y2="648" class="solid"></line>
    </g>
    <g>
        <path d="M 192,584 A 4,4 0,0,1 196,588" class="nofill"></path>
        <line x1="196" y1="588" x2="196" y2="596" class="solid"></line>
        <path d="M 196,596 A 4,4 0,0,0 200,600" class="nofill"></path>
        <path d="M 208,584 A 4,4 0,0,0 204,588" class="nofill"></path>
        <line x1="204" y1="588" x2="204" y2="596" class="solid"></line>
        <path d="M 208,584 A 4,4 0,0,1 212,588" class="nofill"></path>
        <line x1="212" y1="588" x2="212" y2="596" class="solid"></line>
        <path d="M 204,596 A 4,4 0,0,1 200,600" class="nofill"></path>
        <path d="M 212,596 A 4,4 0,0,0 216,600" class="nofill"></path>
        <path d="M 224,584 A 4,4 0,0,0 220,588" class="nofill"></path>
        <line x1="220" y1="588" x2="220" y2="596" class="solid"></line>
        <path d="M 224,584 A 4,4 0,0,1 228,588" class="nofill"></path>
        <line x1="228" y1="588" x2="228" y2="596" class="solid"></line>
        <path d="M 220,596 A 4,4 0,0,1 216,600" class="nofill"></path>
        <path d="M 228,596 A 4,4 0,0,0 232,600" class="nofill"></path>
        <path d="M 240,584 A 4,4 0,0,0 236,588" class="nofill"></path>
        <line x1="236" y1="588" x2="236" y2="596" class="solid"></line>
        <path d="M 240,584 A 4,4 0,0,1 244,588" class="nofill"></path>
        <line x1="244" y1="588" x2="244" y2="596" class="solid"></line>
        <path d="M 236,596 A 4,4 0,0,1 232,600" class="nofill"></path>
        <path d="M 244,596 A 4,4 0,0,0 248,600" class="nofill"></path>
    </g>
    <g>
        <path d="M 288,584 A 4,4 0,0,1 292,588" class="nofill"></path>
        <line x1="292" y1="588" x2="292" y2="596" class="solid"></line>
        <path d="M 292,596 A 4,4 0,0,0 296,600" class="nofill"></path>
        <path d="M 304,584 A 4,4 0,0,0 300,588" class="nofill"></path>
        <line x1="300" y1="588" x2="300" y2="596" class="solid"></line>
        <path d="M 304,584 A 4,4 0,0,1 308,588" class="nofill"></path>
        <line x1="308" y1="588" x2="308" y2="596" class="solid"></line>
        <path d="M 300,596 A 4,4 0,0,1 296,600" class="nofill"></path>
        <path d="M 308,596 A 4,4 0,0,0 312,600" class="nofill"></path>
        <path d="M 320,584 A 4,4 0,0,0 316,588" class="nofill"></path>
        <line x1="316" y1="588" x2="316" y2="596" class="solid"></line>
        <path d="M 320,584 A 4,4 0,0,1 324,588" class="nofill"></path>
        <line x1="324" y1="588" x2="324" y2="596" class="solid"></line>
        <path d="M 316,596 A 4,4 0,0,1 312,600" class="nofill"></path>
        <path d="M 324,596 A 4,4 0,0,0 328,600" class="nofill"></path>
        <path d="M 336,584 A 4,4 0,0,0 332,588" class="nofill"></path>
        <line x1="332" y1="588" x2="332" y2="596" class="solid"></line>
        <path d="M 336,584 A 4,4 0,0,1 340,588" class="nofill"></path>
        <line x1="340" y1="588" x2="340" y2="596" class="solid"></line>
        <path d="M 332,596 A 4,4 0,0,1 328,600" class="nofill"></path>
        <path d="M 340,596 A 4,4 0,0,0 344,600" class="nofill"></path>
    </g>
    <g>
        <path d="M 432,584 A 4,4 0,0,1 436,588" class="nofill"></path>
        <line x1="436" y1="588" x2="436" y2="596" class="solid"></line>
        <path d="M 436,596 A 4,4 0,0,0 440,600" class="nofill"></path>
        <path d="M 448,584 A 4,4 0,0,0 444,588" class="nofill"></path>
        <line x1="444" y1="588" x2="444" y2="596" class="solid"></line>
        <path d="M 448,584 A 4,4 0,0,1 452,588" class="nofill"></path>
        <line x1="452" y1="588" x2="452" y2="596" class="solid"></line>
        <path d="M 444,596 A 4,4 0,0,1 440,600" class="nofill"></path>
        <path d="M 452,596 A 4,4 0,0,0 456,600" class="nofill"></path>
        <path d="M 464,584 A 4,4 0,0,0 460,588" class="nofill"></path>
        <line x1="460" y1="588" x2="460" y2="596" class="solid"></line>
        <path d="M 464,584 A 4,4 0,0,1 468,588" class="nofill"></path>
        <line x1="468" y1="588" x2="468" y2="596" class="solid"></line>
        <path d="M 460,596 A 4,4 0,0,1 456,600" class="nofill"></path>
        <path d="M 468,596 A 4,4 0,0,0 472,600" class="nofill"></path>
        <path d="M 480,584 A 4,4 0,0,0 476,588" class="nofill"></path>
        <line x1="476" y1="588" x2="476" y2="596" class="solid"></line>
        <path d="M 480,584 A 4,4 0,0,1 484,588" class="nofill"></path>
        <line x1="484" y1="588" x2="484" y2="596" class="solid"></line>
        <path d="M 476,596 A 4,4 0,0,1 472,600" class="nofill"></path>
        <path d="M 484,596 A 4,4 0,0,0 488,600" class="nofill"></path>
    </g>
    <g>
        <path d="M 528,584 A 4,4 0,0,1 532,588" class="nofill"></path>
        <line x1="532" y1="588" x2="532" y2="596" class="solid"></line>
        <path d="M 532,596 A 4,4 0,0,0 536,600" class="nofill"></path>
    </g>
    <g>
        <path d="M 936,136 A 4,4 0,0,0 932,140" class="nofill"></path>
        <line x1="932" y1="140" x2="932" y2="648" class="solid"></line>
        <line x1="936" y1="136" x2="1104" y2="136" class="solid"></line>
        <path d="M 1104,136 A 4,4 0,0,1 1108,140" class="nofill"></path>
        <line x1="1108" y1="140" x2="1108" y2="648" class="solid"></line>
        <line x1="932" y1="232" x2="1108" y2="232" class="solid"></line>
        <line x1="932" y1="328" x2="1108" y2="328" class="solid"></line>
        <line x1="932" y1="424" x2="1108" y2="424" class="solid"></line>
        <line x1="932" y1="536" x2="1108" y2="536" class="solid"></line>
        <line x1="932" y1="648" x2="1108" y2="648" class="solid"></line>
    </g>
    <g>
        <line x1="896" y1="264" x2="920" y2="264" class="solid"></line>
        <polygon points="920,260 928,264 920,268" class="filled"></polygon>
    </g>
    <g>
        <line x1="684" y1="328" x2="772" y2="328" class="solid"></line>
        <line x1="684" y1="328" x2="684" y2="648" class="solid"></line>
        <line x1="772" y1="328" x2="772" y2="648" class="solid"></line>
        <line x1="684" y1="424" x2="772" y2="424" class="solid"></line>
        <line x1="684" y1="536" x2="772" y2="536" class="solid"></line>
        <line x1="684" y1="648" x2="772" y2="648" class="solid"></line>
    </g>
    <g>
        <line x1="588" y1="424" x2="620" y2="424" class="solid"></line>
        <line x1="588" y1="424" x2="588" y2="648" class="solid"></line>
        <line x1="620" y1="424" x2="620" y2="648" class="solid"></line>
        <line x1="588" y1="536" x2="620" y2="536" class="solid"></line>
        <line x1="588" y1="648" x2="620" y2="648" class="solid"></line>
    </g>
    <g>
        <line x1="836" y1="424" x2="868" y2="424" class="solid"></line>
        <line x1="836" y1="424" x2="836" y2="648" class="solid"></line>
        <line x1="868" y1="424" x2="868" y2="648" class="solid"></line>
        <line x1="836" y1="536" x2="868" y2="536" class="solid"></line>
        <line x1="836" y1="648" x2="868" y2="648" class="solid"></line>
    </g>
    <g>
        <path d="M 576,584 A 4,4 0,0,1 580,588" class="nofill"></path>
        <line x1="580" y1="588" x2="580" y2="596" class="solid"></line>
        <path d="M 580,596 A 4,4 0,0,0 584,600" class="nofill"></path>
    </g>
    <g>
        <path d="M 624,584 A 4,4 0,0,1 628,588" class="nofill"></path>
        <line x1="628" y1="588" x2="628" y2="596" class="solid"></line>
        <path d="M 628,596 A 4,4 0,0,0 632,600" class="nofill"></path>
        <path d="M 640,584 A 4,4 0,0,0 636,588" class="nofill"></path>
        <line x1="636" y1="588" x2="636" y2="596" class="solid"></line>
        <path d="M 640,584 A 4,4 0,0,1 644,588" class="nofill"></path>
        <line x1="644" y1="588" x2="644" y2="596" class="solid"></line>
        <path d="M 636,596 A 4,4 0,0,1 632,600" class="nofill"></path>
        <path d="M 644,596 A 4,4 0,0,0 648,600" class="nofill"></path>
        <path d="M 656,584 A 4,4 0,0,0 652,588" class="nofill"></path>
        <line x1="652" y1="588" x2="652" y2="596" class="solid"></line>
        <path d="M 656,584 A 4,4 0,0,1 660,588" class="nofill"></path>
        <line x1="660" y1="588" x2="660" y2="596" class="solid"></line>
        <path d="M 652,596 A 4,4 0,0,1 648,600" class="nofill"></path>
        <path d="M 660,596 A 4,4 0,0,0 664,600" class="nofill"></path>
        <path d="M 672,584 A 4,4 0,0,0 668,588" class="nofill"></path>
        <line x1="668" y1="588" x2="668" y2="596" class="solid"></line>
        <path d="M 672,584 A 4,4 0,0,1 676,588" class="nofill"></path>
        <line x1="676" y1="588" x2="676" y2="596" class="solid"></line>
        <path d="M 668,596 A 4,4 0,0,1 664,600" class="nofill"></path>
        <path d="M 676,596 A 4,4 0,0,0 680,600" class="nofill"></path>
    </g>
    <g>
        <path d="M 776,584 A 4,4 0,0,1 780,588" class="nofill"></path>
        <line x1="780" y1="588" x2="780" y2="596" class="solid"></line>
        <path d="M 780,596 A 4,4 0,0,0 784,600" class="nofill"></path>
        <path d="M 792,584 A 4,4 0,0,0 788,588" class="nofill"></path>
        <line x1="788" y1="588" x2="788" y2="596" class="solid"></line>
        <path d="M 792,584 A 4,4 0,0,1 796,588" class="nofill"></path>
        <line x1="796" y1="588" x2="796" y2="596" class="solid"></line>
        <path d="M 788,596 A 4,4 0,0,1 784,600" class="nofill"></path>
        <path d="M 796,596 A 4,4 0,0,0 800,600" class="nofill"></path>
        <path d="M 808,584 A 4,4 0,0,0 804,588" class="nofill"></path>
        <line x1="804" y1="588" x2="804" y2="596" class="solid"></line>
        <path d="M 808,584 A 4,4 0,0,1 812,588" class="nofill"></path>
        <line x1="812" y1="588" x2="812" y2="596" class="solid"></line>
        <path d="M 804,596 A 4,4 0,0,1 800,600" class="nofill"></path>
        <path d="M 812,596 A 4,4 0,0,0 816,600" class="nofill"></path>
        <path d="M 824,584 A 4,4 0,0,0 820,588" class="nofill"></path>
        <line x1="820" y1="588" x2="820" y2="596" class="solid"></line>
        <path d="M 824,584 A 4,4 0,0,1 828,588" class="nofill"></path>
        <line x1="828" y1="588" x2="828" y2="596" class="solid"></line>
        <path d="M 820,596 A 4,4 0,0,1 816,600" class="nofill"></path>
        <path d="M 828,596 A 4,4 0,0,0 832,600" class="nofill"></path>
    </g>
    <g>
        <path d="M 872,584 A 4,4 0,0,1 876,588" class="nofill"></path>
        <line x1="876" y1="588" x2="876" y2="596" class="solid"></line>
        <path d="M 876,596 A 4,4 0,0,0 880,600" class="nofill"></path>
        <path d="M 888,584 A 4,4 0,0,0 884,588" class="nofill"></path>
        <line x1="884" y1="588" x2="884" y2="596" class="solid"></line>
        <path d="M 888,584 A 4,4 0,0,1 892,588" class="nofill"></path>
        <line x1="892" y1="588" x2="892" y2="596" class="solid"></line>
        <path d="M 884,596 A 4,4 0,0,1 880,600" class="nofill"></path>
        <path d="M 892,596 A 4,4 0,0,0 896,600" class="nofill"></path>
        <path d="M 904,584 A 4,4 0,0,0 900,588" class="nofill"></path>
        <line x1="900" y1="588" x2="900" y2="596" class="solid"></line>
        <path d="M 904,584 A 4,4 0,0,1 908,588" class="nofill"></path>
        <line x1="908" y1="588" x2="908" y2="596" class="solid"></line>
        <path d="M 900,596 A 4,4 0,0,1 896,600" class="nofill"></path>
        <path d="M 908,596 A 4,4 0,0,0 912,600" class="nofill"></path>
        <path d="M 920,584 A 4,4 0,0,0 916,588" class="nofill"></path>
        <line x1="916" y1="588" x2="916" y2="596" class="solid"></line>
        <path d="M 920,584 A 4,4 0,0,1 924,588" class="nofill"></path>
        <line x1="924" y1="588" x2="924" y2="596" class="solid"></line>
        <path d="M 916,596 A 4,4 0,0,1 912,600" class="nofill"></path>
        <path d="M 924,596 A 4,4 0,0,0 928,600" class="nofill"></path>
    </g>
    <g>
        <polygon points="208,292 200,296 208,300" class="filled"></polygon>
        <line x1="208" y1="296" x2="232" y2="296" class="solid"></line>
    </g>
    <g>
        <line x1="320" y1="360" x2="328" y2="360" class="solid"></line>
        <polygon points="328,356 336,360 328,364" class="filled"></polygon>
    </g>
    <g>
        <line x1="656" y1="360" x2="664" y2="360" class="solid"></line>
        <polygon points="664,356 672,360 664,364" class="filled"></polygon>
    </g>
    <g>
        <line x1="904" y1="360" x2="912" y2="360" class="solid"></line>
        <polygon points="912,356 920,360 912,364" class="filled"></polygon>
    </g>
    <g>
        <polygon points="208,388 200,392 208,396" class="filled"></polygon>
        <line x1="208" y1="392" x2="216" y2="392" class="solid"></line>
    </g>
    <g>
        <polygon points="448,388 440,392 448,396" class="filled"></polygon>
        <line x1="448" y1="392" x2="456" y2="392" class="solid"></line>
    </g>
    <g>
        <polygon points="792,388 784,392 792,396" class="filled"></polygon>
        <line x1="792" y1="392" x2="800" y2="392" class="solid"></line>
    </g>
</svg>
