<svg xmlns="http://www.w3.org/2000/svg" width="1280" height="352">
    <style>
        line, path, circle, rect, polygon{stroke:black;stroke-width:1;stroke-opacity:1;fill-opacity:1;stroke-linecap:round;stroke-linejoin:miter;}text{font-family:Iosevka Fixed, monospace;font-size:14px;}rect.backdrop{stroke:none;fill:white;}.broken{stroke-dasharray:8;}.filled{fill:black;}.bg_filled{fill:white;}.nofill{fill:white;}.end_marked_arrow{marker-end:url(#arrow);}.start_marked_arrow{marker-start:url(#arrow);}.end_marked_diamond{marker-end:url(#diamond);}.start_marked_diamond{marker-start:url(#diamond);}.end_marked_circle{marker-end:url(#circle);}.start_marked_circle{marker-start:url(#circle);}.end_marked_open_circle{marker-end:url(#open_circle);}.start_marked_open_circle{marker-start:url(#open_circle);}.end_marked_big_open_circle{marker-end:url(#big_open_circle);}.start_marked_big_open_circle{marker-start:url(#big_open_circle);}
        <!--separator-->
        
    </style>
    <defs>
        <marker id="arrow" viewBox="-2 -2 8 8" refX="4" refY="2" markerWidth="7" markerHeight="7" orient="auto-start-reverse">
            <polygon points="0,0 0,4 4,2 0,0"></polygon>
        </marker>
        <marker id="diamond" viewBox="-2 -2 8 8" refX="4" refY="2" markerWidth="7" markerHeight="7" orient="auto-start-reverse">
            <polygon points="0,2 2,0 4,2 2,4 0,2"></polygon>
        </marker>
        <marker id="circle" viewBox="0 0 8 8" refX="4" refY="4" markerWidth="7" markerHeight="7" orient="auto-start-reverse">
            <circle cx="4" cy="4" r="2" class="filled"></circle>
        </marker>
        <marker id="open_circle" viewBox="0 0 8 8" refX="4" refY="4" markerWidth="7" markerHeight="7" orient="auto-start-reverse">
            <circle cx="4" cy="4" r="2" class="bg_filled"></circle>
        </marker>
        <marker id="big_open_circle" viewBox="0 0 8 8" refX="4" refY="4" markerWidth="7" markerHeight="7" orient="auto-start-reverse">
            <circle cx="4" cy="4" r="3" class="bg_filled"></circle>
        </marker>
    </defs>
    <rect class="backdrop" x="0" y="0" width="1280" height="352"></rect>
    <circle cx="260" cy="24" r="8" class="nofill"></circle>
    <text x="1098" y="284" >23.02.32.32:80</text>
    <text x="282" y="108" >wpisuje w pasek adresu: onet.pl</text>
    <text x="1098" y="156" >serwer HTTP onet.pl</text>
    <text x="58" y="188" >przeglądarka</text>
    <text x="650" y="236" >GET /</text>
    <text x="186" y="252" >socket TCP</text>
    <text x="650" y="252" >Host: onet.pl</text>
    <text x="1098" y="252" >socket TCP</text>
    <text x="210" y="284" >10.0.0.32:43425</text>
    <text x="650" y="316" >HTTP/1.1 200 OK</text>
    <g>
        <line x1="248" y1="40" x2="272" y2="40" class="solid"></line>
        <line x1="260" y1="40" x2="260" y2="56" class="solid"></line>
        <line x1="260" y1="56" x2="248" y2="80" class="solid"></line>
        <line x1="260" y1="56" x2="272" y2="80" class="solid"></line>
    </g>
    <g>
        <line x1="260" y1="96" x2="260" y2="116" class="solid"></line>
        <polygon points="256,116 264,116 260,128" class="filled"></polygon>
    </g>
    <g>
        <line x1="180" y1="136" x2="348" y2="136" class="solid"></line>
        <line x1="180" y1="136" x2="180" y2="328" class="solid"></line>
        <line x1="348" y1="136" x2="348" y2="328" class="solid"></line>
        <line x1="180" y1="232" x2="348" y2="232" class="solid"></line>
        <line x1="180" y1="328" x2="348" y2="328" class="solid"></line>
    </g>
    <g>
        <line x1="300" y1="176" x2="300" y2="212" class="solid"></line>
        <polygon points="296,212 304,212 300,224" class="filled"></polygon>
    </g>
    <g>
        <line x1="1092" y1="136" x2="1268" y2="136" class="solid"></line>
        <line x1="1092" y1="136" x2="1092" y2="328" class="solid"></line>
        <line x1="1268" y1="136" x2="1268" y2="328" class="solid"></line>
        <line x1="1092" y1="232" x2="1268" y2="232" class="solid"></line>
        <line x1="1092" y1="328" x2="1268" y2="328" class="solid"></line>
    </g>
    <g>
        <line x1="364" y1="264" x2="1080" y2="264" class="solid"></line>
        <polygon points="1080,260 1088,264 1080,268" class="filled"></polygon>
    </g>
    <g>
        <polygon points="368,292 360,296 368,300" class="filled"></polygon>
        <line x1="368" y1="296" x2="1084" y2="296" class="solid"></line>
    </g>
</svg>
