<svg xmlns="http://www.w3.org/2000/svg" width="1120" height="448">
    <style>
        line, path, circle, rect, polygon{stroke:black;stroke-width:1;stroke-opacity:1;fill-opacity:1;stroke-linecap:round;stroke-linejoin:miter;}text{font-family:Iosevka Fixed, monospace;font-size:14px;}rect.backdrop{stroke:none;fill:white;}.broken{stroke-dasharray:8;}.filled{fill:black;}.bg_filled{fill:white;}.nofill{fill:white;}.end_marked_arrow{marker-end:url(#arrow);}.start_marked_arrow{marker-start:url(#arrow);}.end_marked_diamond{marker-end:url(#diamond);}.start_marked_diamond{marker-start:url(#diamond);}.end_marked_circle{marker-end:url(#circle);}.start_marked_circle{marker-start:url(#circle);}.end_marked_open_circle{marker-end:url(#open_circle);}.start_marked_open_circle{marker-start:url(#open_circle);}.end_marked_big_open_circle{marker-end:url(#big_open_circle);}.start_marked_big_open_circle{marker-start:url(#big_open_circle);}
        <!--separator-->
        
    </style>
    <defs>
        <marker id="arrow" viewBox="-2 -2 8 8" refX="4" refY="2" markerWidth="7" markerHeight="7" orient="auto-start-reverse">
            <polygon points="0,0 0,4 4,2 0,0"></polygon>
        </marker>
        <marker id="diamond" viewBox="-2 -2 8 8" refX="4" refY="2" markerWidth="7" markerHeight="7" orient="auto-start-reverse">
            <polygon points="0,2 2,0 4,2 2,4 0,2"></polygon>
        </marker>
        <marker id="circle" viewBox="0 0 8 8" refX="4" refY="4" markerWidth="7" markerHeight="7" orient="auto-start-reverse">
            <circle cx="4" cy="4" r="2" class="filled"></circle>
        </marker>
        <marker id="open_circle" viewBox="0 0 8 8" refX="4" refY="4" markerWidth="7" markerHeight="7" orient="auto-start-reverse">
            <circle cx="4" cy="4" r="2" class="bg_filled"></circle>
        </marker>
        <marker id="big_open_circle" viewBox="0 0 8 8" refX="4" refY="4" markerWidth="7" markerHeight="7" orient="auto-start-reverse">
            <circle cx="4" cy="4" r="3" class="bg_filled"></circle>
        </marker>
    </defs>
    <rect class="backdrop" x="0" y="0" width="1120" height="448"></rect>
    <circle cx="100" cy="24" r="8" class="nofill"></circle>
    <rect x="348" y="328" width="80" height="96" class="solid nofill" rx="0"></rect>
    <text x="354" y="348" >router</text>
    <text x="354" y="364" >10.0.0.1</text>
    <rect x="684" y="328" width="88" height="96" class="solid nofill" rx="0"></rect>
    <text x="690" y="348" >router</text>
    <text x="690" y="364" >23.02.32.1</text>
    <circle cx="236" cy="360" r="8" class="nofill"></circle>
    <circle cx="268" cy="360" r="8" class="nofill"></circle>
    <circle cx="300" cy="360" r="8" class="nofill"></circle>
    <circle cx="476" cy="360" r="8" class="nofill"></circle>
    <circle cx="508" cy="360" r="8" class="nofill"></circle>
    <circle cx="604" cy="360" r="8" class="nofill"></circle>
    <circle cx="636" cy="360" r="8" class="nofill"></circle>
    <circle cx="820" cy="360" r="8" class="nofill"></circle>
    <circle cx="852" cy="360" r="8" class="nofill"></circle>
    <circle cx="884" cy="360" r="8" class="nofill"></circle>
    <circle cx="236" cy="392" r="8" class="nofill"></circle>
    <circle cx="268" cy="392" r="8" class="nofill"></circle>
    <circle cx="300" cy="392" r="8" class="nofill"></circle>
    <circle cx="476" cy="392" r="8" class="nofill"></circle>
    <circle cx="508" cy="392" r="8" class="nofill"></circle>
    <circle cx="604" cy="392" r="8" class="nofill"></circle>
    <circle cx="636" cy="392" r="8" class="nofill"></circle>
    <circle cx="820" cy="392" r="8" class="nofill"></circle>
    <circle cx="852" cy="392" r="8" class="nofill"></circle>
    <circle cx="884" cy="392" r="8" class="nofill"></circle>
    <text x="938" y="284" >23.02.32.32:80</text>
    <line x1="200" y1="360" x2="216" y2="360" class="solid"></line>
    <line x1="440" y1="360" x2="456" y2="360" class="solid"></line>
    <line x1="568" y1="360" x2="584" y2="360" class="solid"></line>
    <text x="546" y="380" >...</text>
    <line x1="528" y1="392" x2="544" y2="392" class="solid"></line>
    <line x1="784" y1="360" x2="800" y2="360" class="solid"></line>
    <text x="106" y="380" >10.0.0.32</text>
    <line x1="320" y1="392" x2="336" y2="392" class="solid"></line>
    <line x1="656" y1="392" x2="672" y2="392" class="solid"></line>
    <line x1="904" y1="392" x2="920" y2="392" class="solid"></line>
    <text x="122" y="108" >wpisuje w pasek adresu: onet.pl</text>
    <text x="26" y="156" >przeglądarka</text>
    <text x="938" y="156" >serwer HTTP onet.pl</text>
    <text x="490" y="236" >GET /</text>
    <text x="26" y="252" >socket TCP</text>
    <text x="490" y="252" >Host: onet.pl</text>
    <text x="938" y="252" >socket TCP</text>
    <text x="50" y="284" >10.0.0.32:43425</text>
    <text x="490" y="316" >HTTP/1.1 200 OK</text>
    <text x="26" y="348" >Warstwa IP</text>
    <text x="938" y="348" >Warstwa IP</text>
    <g>
        <line x1="88" y1="40" x2="112" y2="40" class="solid"></line>
        <line x1="100" y1="40" x2="100" y2="56" class="solid"></line>
        <line x1="100" y1="56" x2="88" y2="80" class="solid"></line>
        <line x1="100" y1="56" x2="112" y2="80" class="solid"></line>
    </g>
    <g>
        <line x1="100" y1="96" x2="100" y2="116" class="solid"></line>
        <polygon points="96,116 104,116 100,128" class="filled"></polygon>
    </g>
    <g>
        <line x1="20" y1="136" x2="188" y2="136" class="solid"></line>
        <line x1="20" y1="136" x2="20" y2="424" class="solid"></line>
        <line x1="188" y1="136" x2="188" y2="424" class="solid"></line>
        <line x1="20" y1="232" x2="188" y2="232" class="solid"></line>
        <line x1="20" y1="328" x2="188" y2="328" class="solid"></line>
        <line x1="20" y1="424" x2="188" y2="424" class="solid"></line>
    </g>
    <g>
        <line x1="932" y1="136" x2="1108" y2="136" class="solid"></line>
        <line x1="932" y1="136" x2="932" y2="424" class="solid"></line>
        <line x1="1108" y1="136" x2="1108" y2="424" class="solid"></line>
        <line x1="932" y1="232" x2="1108" y2="232" class="solid"></line>
        <line x1="932" y1="328" x2="1108" y2="328" class="solid"></line>
        <line x1="932" y1="424" x2="1108" y2="424" class="solid"></line>
    </g>
    <g>
        <line x1="320" y1="360" x2="328" y2="360" class="solid"></line>
        <polygon points="328,356 336,360 328,364" class="filled"></polygon>
    </g>
    <g>
        <line x1="528" y1="360" x2="536" y2="360" class="solid"></line>
        <polygon points="536,356 544,360 536,364" class="filled"></polygon>
    </g>
    <g>
        <polygon points="576,388 568,392 576,396" class="filled"></polygon>
        <line x1="576" y1="392" x2="584" y2="392" class="solid"></line>
    </g>
    <g>
        <line x1="656" y1="360" x2="664" y2="360" class="solid"></line>
        <polygon points="664,356 672,360 664,364" class="filled"></polygon>
    </g>
    <g>
        <line x1="904" y1="360" x2="912" y2="360" class="solid"></line>
        <polygon points="912,356 920,360 912,364" class="filled"></polygon>
    </g>
    <g>
        <polygon points="208,388 200,392 208,396" class="filled"></polygon>
        <line x1="208" y1="392" x2="216" y2="392" class="solid"></line>
    </g>
    <g>
        <polygon points="448,388 440,392 448,396" class="filled"></polygon>
        <line x1="448" y1="392" x2="456" y2="392" class="solid"></line>
    </g>
    <g>
        <polygon points="792,388 784,392 792,396" class="filled"></polygon>
        <line x1="792" y1="392" x2="800" y2="392" class="solid"></line>
    </g>
</svg>
