<svg xmlns="http://www.w3.org/2000/svg" width="1536" height="720">
    <style>
        line, path, circle, rect, polygon{stroke:black;stroke-width:1;stroke-opacity:1;fill-opacity:1;stroke-linecap:round;stroke-linejoin:miter;}text{font-family:Iosevka Fixed, monospace;font-size:14px;}rect.backdrop{stroke:none;fill:white;}.broken{stroke-dasharray:8;}.filled{fill:black;}.bg_filled{fill:white;}.nofill{fill:white;}.end_marked_arrow{marker-end:url(#arrow);}.start_marked_arrow{marker-start:url(#arrow);}.end_marked_diamond{marker-end:url(#diamond);}.start_marked_diamond{marker-start:url(#diamond);}.end_marked_circle{marker-end:url(#circle);}.start_marked_circle{marker-start:url(#circle);}.end_marked_open_circle{marker-end:url(#open_circle);}.start_marked_open_circle{marker-start:url(#open_circle);}.end_marked_big_open_circle{marker-end:url(#big_open_circle);}.start_marked_big_open_circle{marker-start:url(#big_open_circle);}
        <!--separator-->
        
    </style>
    <defs>
        <marker id="arrow" viewBox="-2 -2 8 8" refX="4" refY="2" markerWidth="7" markerHeight="7" orient="auto-start-reverse">
            <polygon points="0,0 0,4 4,2 0,0"></polygon>
        </marker>
        <marker id="diamond" viewBox="-2 -2 8 8" refX="4" refY="2" markerWidth="7" markerHeight="7" orient="auto-start-reverse">
            <polygon points="0,2 2,0 4,2 2,4 0,2"></polygon>
        </marker>
        <marker id="circle" viewBox="0 0 8 8" refX="4" refY="4" markerWidth="7" markerHeight="7" orient="auto-start-reverse">
            <circle cx="4" cy="4" r="2" class="filled"></circle>
        </marker>
        <marker id="open_circle" viewBox="0 0 8 8" refX="4" refY="4" markerWidth="7" markerHeight="7" orient="auto-start-reverse">
            <circle cx="4" cy="4" r="2" class="bg_filled"></circle>
        </marker>
        <marker id="big_open_circle" viewBox="0 0 8 8" refX="4" refY="4" markerWidth="7" markerHeight="7" orient="auto-start-reverse">
            <circle cx="4" cy="4" r="3" class="bg_filled"></circle>
        </marker>
    </defs>
    <rect class="backdrop" x="0" y="0" width="1536" height="720"></rect>
    <text x="354" y="604" >port1</text>
    <text x="506" y="604" >1010100101000100001</text>
    <text x="826" y="604" >1010100101000100001</text>
    <text x="1026" y="604" >port4</text>
    <text x="506" y="620" >1010100101101111011</text>
    <text x="826" y="620" >1010100101101111011</text>
    <text x="538" y="684" >port2</text>
    <text x="882" y="684" >port3</text>
    <text x="410" y="28" >warstwa</text>
    <text x="410" y="44" >sieciowa</text>
    <text x="626" y="108" >nagłówek ip</text>
    <text x="618" y="124" >src: 10.0.0.23</text>
    <text x="810" y="124" >wybór</text>
    <text x="618" y="140" >dst: 75.2.92.173</text>
    <text x="810" y="140" >portu</text>
    <text x="626" y="156" >nagłówek tcp</text>
    <text x="618" y="172" >src: 230431</text>
    <text x="618" y="188" >dst: 80</text>
    <text x="626" y="204" >żądanie http</text>
    <text x="618" y="220" >GET /</text>
    <text x="618" y="236" >Host www.onet.pl</text>
    <text x="410" y="300" >warstwa</text>
    <text x="410" y="316" >łącza danych</text>
    <text x="514" y="332" >nagłówek ethernet</text>
    <text x="834" y="332" >nagłówek ethernet</text>
    <text x="506" y="348" >src DE:AD:FB:FD:FD</text>
    <text x="826" y="348" >src AE:DE:65:54:10</text>
    <text x="506" y="364" >dst AE:DE:65:54:10</text>
    <text x="826" y="364" >dst FA:21:36:59:00</text>
    <text x="514" y="380" >nagłówek ip</text>
    <text x="834" y="380" >nagłówek ip</text>
    <text x="506" y="396" >src: 10.0.0.23</text>
    <text x="826" y="396" >src: 10.0.0.23</text>
    <text x="506" y="412" >dst: 75.2.92.173</text>
    <text x="826" y="412" >dst: 75.2.92.173</text>
    <text x="514" y="428" >nagłówek tcp</text>
    <text x="834" y="428" >nagłówek tcp</text>
    <text x="506" y="444" >src: 230431</text>
    <text x="826" y="444" >src: 230431</text>
    <text x="506" y="460" >dst: 80</text>
    <text x="826" y="460" >dst: 80</text>
    <text x="514" y="476" >żądanie http</text>
    <text x="834" y="476" >żądanie http</text>
    <text x="506" y="492" >GET /</text>
    <text x="826" y="492" >GET /</text>
    <text x="506" y="508" >Host www.onet.pl</text>
    <text x="826" y="508" >Host www.onet.pl</text>
    <text x="410" y="572" >warstwa</text>
    <text x="410" y="588" >fizyczna</text>
    <g>
        <line x1="404" y1="8" x2="1020" y2="8" class="solid"></line>
        <line x1="404" y1="8" x2="404" y2="664" class="solid"></line>
        <line x1="1020" y1="8" x2="1020" y2="664" class="solid"></line>
        <line x1="404" y1="280" x2="1020" y2="280" class="solid"></line>
        <line x1="1020" y1="584" x2="1076" y2="584" class="solid"></line>
        <line x1="1076" y1="584" x2="1076" y2="616" class="solid"></line>
        <line x1="404" y1="600" x2="488" y2="600" class="solid"></line>
        <polygon points="488,596 496,600 488,604" class="filled"></polygon>
        <line x1="1020" y1="616" x2="1076" y2="616" class="solid"></line>
        <line x1="404" y1="664" x2="1020" y2="664" class="solid"></line>
        <line x1="532" y1="664" x2="532" y2="696" class="solid"></line>
        <line x1="588" y1="664" x2="588" y2="696" class="solid"></line>
        <line x1="876" y1="664" x2="876" y2="696" class="solid"></line>
        <line x1="932" y1="664" x2="932" y2="696" class="solid"></line>
        <line x1="532" y1="696" x2="588" y2="696" class="solid"></line>
        <line x1="876" y1="696" x2="932" y2="696" class="solid"></line>
        <line x1="984" y1="328" x2="996" y2="328" class="solid"></line>
        <line x1="996" y1="328" x2="996" y2="520" class="solid"></line>
        <line x1="936" y1="376" x2="996" y2="376" class="solid"></line>
        <line x1="944" y1="424" x2="996" y2="424" class="solid"></line>
        <line x1="944" y1="472" x2="996" y2="472" class="solid"></line>
        <line x1="820" y1="520" x2="996" y2="520" class="solid"></line>
        <line x1="900" y1="520" x2="900" y2="552" class="solid"></line>
        <line x1="404" y1="552" x2="1020" y2="552" class="solid"></line>
        <path d="M 336,584 A 4,4 0,0,0 332,588" class="nofill"></path>
        <line x1="332" y1="588" x2="332" y2="612" class="solid"></line>
        <line x1="336" y1="584" x2="404" y2="584" class="solid"></line>
        <line x1="348" y1="584" x2="348" y2="616" class="solid"></line>
        <path d="M 332,612 A 4,4 0,0,1 328,616" class="nofill"></path>
        <line x1="348" y1="616" x2="404" y2="616" class="solid"></line>
        <line x1="820" y1="328" x2="832" y2="328" class="solid"></line>
        <line x1="820" y1="328" x2="820" y2="520" class="solid"></line>
        <line x1="820" y1="376" x2="832" y2="376" class="solid"></line>
        <line x1="820" y1="424" x2="832" y2="424" class="solid"></line>
        <line x1="820" y1="472" x2="832" y2="472" class="solid"></line>
        <path d="M 16,584 A 4,4 0,0,1 20,588" class="nofill"></path>
        <line x1="20" y1="588" x2="20" y2="612" class="solid"></line>
        <path d="M 20,612 A 4,4 0,0,0 24,616" class="nofill"></path>
        <line x1="24" y1="616" x2="40" y2="616" class="solid"></line>
        <path d="M 48,584 A 4,4 0,0,0 44,588" class="nofill"></path>
        <line x1="44" y1="588" x2="44" y2="612" class="solid"></line>
        <line x1="48" y1="584" x2="64" y2="584" class="solid"></line>
        <path d="M 64,584 A 4,4 0,0,1 68,588" class="nofill"></path>
        <line x1="68" y1="588" x2="68" y2="612" class="solid"></line>
        <path d="M 44,612 A 4,4 0,0,1 40,616" class="nofill"></path>
        <path d="M 68,612 A 4,4 0,0,0 72,616" class="nofill"></path>
        <line x1="72" y1="616" x2="88" y2="616" class="solid"></line>
        <path d="M 96,584 A 4,4 0,0,0 92,588" class="nofill"></path>
        <line x1="92" y1="588" x2="92" y2="612" class="solid"></line>
        <line x1="96" y1="584" x2="112" y2="584" class="solid"></line>
        <path d="M 112,584 A 4,4 0,0,1 116,588" class="nofill"></path>
        <line x1="116" y1="588" x2="116" y2="612" class="solid"></line>
        <path d="M 92,612 A 4,4 0,0,1 88,616" class="nofill"></path>
        <path d="M 116,612 A 4,4 0,0,0 120,616" class="nofill"></path>
        <line x1="120" y1="616" x2="136" y2="616" class="solid"></line>
        <path d="M 144,584 A 4,4 0,0,0 140,588" class="nofill"></path>
        <line x1="140" y1="588" x2="140" y2="612" class="solid"></line>
        <line x1="144" y1="584" x2="160" y2="584" class="solid"></line>
        <path d="M 160,584 A 4,4 0,0,1 164,588" class="nofill"></path>
        <line x1="164" y1="588" x2="164" y2="612" class="solid"></line>
        <path d="M 140,612 A 4,4 0,0,1 136,616" class="nofill"></path>
        <path d="M 164,612 A 4,4 0,0,0 168,616" class="nofill"></path>
        <line x1="168" y1="616" x2="184" y2="616" class="solid"></line>
        <path d="M 192,584 A 4,4 0,0,0 188,588" class="nofill"></path>
        <line x1="188" y1="588" x2="188" y2="612" class="solid"></line>
        <line x1="192" y1="584" x2="208" y2="584" class="solid"></line>
        <path d="M 208,584 A 4,4 0,0,1 212,588" class="nofill"></path>
        <line x1="212" y1="588" x2="212" y2="612" class="solid"></line>
        <path d="M 188,612 A 4,4 0,0,1 184,616" class="nofill"></path>
        <path d="M 212,612 A 4,4 0,0,0 216,616" class="nofill"></path>
        <line x1="216" y1="616" x2="232" y2="616" class="solid"></line>
        <path d="M 240,584 A 4,4 0,0,0 236,588" class="nofill"></path>
        <line x1="236" y1="588" x2="236" y2="612" class="solid"></line>
        <line x1="240" y1="584" x2="256" y2="584" class="solid"></line>
        <path d="M 256,584 A 4,4 0,0,1 260,588" class="nofill"></path>
        <line x1="260" y1="588" x2="260" y2="612" class="solid"></line>
        <path d="M 236,612 A 4,4 0,0,1 232,616" class="nofill"></path>
        <path d="M 260,612 A 4,4 0,0,0 264,616" class="nofill"></path>
        <line x1="264" y1="616" x2="280" y2="616" class="solid"></line>
        <path d="M 288,584 A 4,4 0,0,0 284,588" class="nofill"></path>
        <line x1="284" y1="588" x2="284" y2="612" class="solid"></line>
        <line x1="288" y1="584" x2="304" y2="584" class="solid"></line>
        <path d="M 304,584 A 4,4 0,0,1 308,588" class="nofill"></path>
        <line x1="308" y1="588" x2="308" y2="612" class="solid"></line>
        <path d="M 284,612 A 4,4 0,0,1 280,616" class="nofill"></path>
        <path d="M 308,612 A 4,4 0,0,0 312,616" class="nofill"></path>
        <line x1="312" y1="616" x2="328" y2="616" class="solid"></line>
    </g>
    <g>
        <line x1="612" y1="104" x2="624" y2="104" class="solid"></line>
        <line x1="612" y1="104" x2="612" y2="248" class="solid"></line>
        <line x1="612" y1="152" x2="624" y2="152" class="solid"></line>
        <line x1="612" y1="200" x2="624" y2="200" class="solid"></line>
        <line x1="728" y1="104" x2="788" y2="104" class="solid"></line>
        <line x1="788" y1="104" x2="788" y2="248" class="solid"></line>
        <line x1="736" y1="152" x2="788" y2="152" class="solid"></line>
        <line x1="736" y1="200" x2="788" y2="200" class="solid"></line>
        <line x1="612" y1="248" x2="788" y2="248" class="solid"></line>
        <line x1="804" y1="104" x2="868" y2="104" class="solid"></line>
        <line x1="804" y1="104" x2="804" y2="152" class="solid"></line>
        <line x1="868" y1="104" x2="868" y2="152" class="solid"></line>
        <line x1="788" y1="136" x2="804" y2="136" class="solid"></line>
        <line x1="868" y1="136" x2="896" y2="136" class="solid"></line>
        <path d="M 896,136 A 4,4 0,0,1 900,140" class="nofill"></path>
        <line x1="900" y1="140" x2="900" y2="320" class="solid"></line>
        <line x1="804" y1="152" x2="868" y2="152" class="solid"></line>
    </g>
    <g>
        <path d="M 584,120 A 4,4 0,0,0 580,124" class="nofill"></path>
        <line x1="580" y1="124" x2="580" y2="320" class="solid"></line>
        <line x1="584" y1="120" x2="600" y2="120" class="solid"></line>
        <polygon points="600,116 608,120 600,124" class="filled"></polygon>
    </g>
    <g>
        <line x1="500" y1="328" x2="512" y2="328" class="solid"></line>
        <line x1="500" y1="328" x2="500" y2="520" class="solid"></line>
        <line x1="500" y1="376" x2="512" y2="376" class="solid"></line>
        <line x1="500" y1="424" x2="512" y2="424" class="solid"></line>
        <line x1="500" y1="472" x2="512" y2="472" class="solid"></line>
        <line x1="664" y1="328" x2="676" y2="328" class="solid"></line>
        <line x1="676" y1="328" x2="676" y2="520" class="solid"></line>
        <line x1="616" y1="376" x2="676" y2="376" class="solid"></line>
        <line x1="624" y1="424" x2="676" y2="424" class="solid"></line>
        <line x1="624" y1="472" x2="676" y2="472" class="solid"></line>
        <line x1="500" y1="520" x2="676" y2="520" class="solid"></line>
        <line x1="580" y1="520" x2="580" y2="584" class="solid"></line>
        <line x1="500" y1="584" x2="676" y2="584" class="solid"></line>
        <line x1="500" y1="584" x2="500" y2="632" class="solid"></line>
        <line x1="676" y1="584" x2="676" y2="632" class="solid"></line>
        <line x1="500" y1="632" x2="676" y2="632" class="solid"></line>
    </g>
    <g>
        <line x1="900" y1="560" x2="900" y2="564" class="solid"></line>
        <polygon points="896,564 904,564 900,576" class="filled"></polygon>
    </g>
    <g>
        <line x1="820" y1="584" x2="996" y2="584" class="solid"></line>
        <line x1="820" y1="584" x2="820" y2="632" class="solid"></line>
        <line x1="996" y1="584" x2="996" y2="632" class="solid"></line>
        <line x1="996" y1="600" x2="1008" y2="600" class="solid"></line>
        <polygon points="1008,596 1016,600 1008,604" class="filled"></polygon>
        <line x1="820" y1="632" x2="996" y2="632" class="solid"></line>
    </g>
    <g>
        <path d="M 1088,584 A 4,4 0,0,1 1092,588" class="nofill"></path>
        <line x1="1092" y1="588" x2="1092" y2="612" class="solid"></line>
        <path d="M 1092,612 A 4,4 0,0,0 1096,616" class="nofill"></path>
        <line x1="1096" y1="616" x2="1112" y2="616" class="solid"></line>
        <path d="M 1120,584 A 4,4 0,0,0 1116,588" class="nofill"></path>
        <line x1="1116" y1="588" x2="1116" y2="612" class="solid"></line>
        <line x1="1120" y1="584" x2="1136" y2="584" class="solid"></line>
        <path d="M 1136,584 A 4,4 0,0,1 1140,588" class="nofill"></path>
        <line x1="1140" y1="588" x2="1140" y2="612" class="solid"></line>
        <path d="M 1116,612 A 4,4 0,0,1 1112,616" class="nofill"></path>
        <path d="M 1140,612 A 4,4 0,0,0 1144,616" class="nofill"></path>
        <line x1="1144" y1="616" x2="1160" y2="616" class="solid"></line>
        <path d="M 1168,584 A 4,4 0,0,0 1164,588" class="nofill"></path>
        <line x1="1164" y1="588" x2="1164" y2="612" class="solid"></line>
        <line x1="1168" y1="584" x2="1184" y2="584" class="solid"></line>
        <path d="M 1184,584 A 4,4 0,0,1 1188,588" class="nofill"></path>
        <line x1="1188" y1="588" x2="1188" y2="612" class="solid"></line>
        <path d="M 1164,612 A 4,4 0,0,1 1160,616" class="nofill"></path>
        <path d="M 1188,612 A 4,4 0,0,0 1192,616" class="nofill"></path>
        <line x1="1192" y1="616" x2="1208" y2="616" class="solid"></line>
        <path d="M 1216,584 A 4,4 0,0,0 1212,588" class="nofill"></path>
        <line x1="1212" y1="588" x2="1212" y2="612" class="solid"></line>
        <line x1="1216" y1="584" x2="1232" y2="584" class="solid"></line>
        <path d="M 1232,584 A 4,4 0,0,1 1236,588" class="nofill"></path>
        <line x1="1236" y1="588" x2="1236" y2="612" class="solid"></line>
        <path d="M 1212,612 A 4,4 0,0,1 1208,616" class="nofill"></path>
        <path d="M 1236,612 A 4,4 0,0,0 1240,616" class="nofill"></path>
        <line x1="1240" y1="616" x2="1256" y2="616" class="solid"></line>
        <path d="M 1264,584 A 4,4 0,0,0 1260,588" class="nofill"></path>
        <line x1="1260" y1="588" x2="1260" y2="612" class="solid"></line>
        <line x1="1264" y1="584" x2="1280" y2="584" class="solid"></line>
        <path d="M 1280,584 A 4,4 0,0,1 1284,588" class="nofill"></path>
        <line x1="1284" y1="588" x2="1284" y2="612" class="solid"></line>
        <path d="M 1260,612 A 4,4 0,0,1 1256,616" class="nofill"></path>
        <path d="M 1284,612 A 4,4 0,0,0 1288,616" class="nofill"></path>
        <line x1="1288" y1="616" x2="1304" y2="616" class="solid"></line>
        <path d="M 1312,584 A 4,4 0,0,0 1308,588" class="nofill"></path>
        <line x1="1308" y1="588" x2="1308" y2="612" class="solid"></line>
        <line x1="1312" y1="584" x2="1328" y2="584" class="solid"></line>
        <path d="M 1328,584 A 4,4 0,0,1 1332,588" class="nofill"></path>
        <line x1="1332" y1="588" x2="1332" y2="612" class="solid"></line>
        <path d="M 1308,612 A 4,4 0,0,1 1304,616" class="nofill"></path>
        <path d="M 1332,612 A 4,4 0,0,0 1336,616" class="nofill"></path>
        <line x1="1336" y1="616" x2="1352" y2="616" class="solid"></line>
        <path d="M 1360,584 A 4,4 0,0,0 1356,588" class="nofill"></path>
        <line x1="1356" y1="588" x2="1356" y2="612" class="solid"></line>
        <line x1="1360" y1="584" x2="1376" y2="584" class="solid"></line>
        <path d="M 1376,584 A 4,4 0,0,1 1380,588" class="nofill"></path>
        <line x1="1380" y1="588" x2="1380" y2="612" class="solid"></line>
        <path d="M 1356,612 A 4,4 0,0,1 1352,616" class="nofill"></path>
        <path d="M 1380,612 A 4,4 0,0,0 1384,616" class="nofill"></path>
        <line x1="1384" y1="616" x2="1400" y2="616" class="solid"></line>
        <path d="M 1408,584 A 4,4 0,0,0 1404,588" class="nofill"></path>
        <line x1="1404" y1="588" x2="1404" y2="612" class="solid"></line>
        <line x1="1408" y1="584" x2="1424" y2="584" class="solid"></line>
        <path d="M 1424,584 A 4,4 0,0,1 1428,588" class="nofill"></path>
        <line x1="1428" y1="588" x2="1428" y2="612" class="solid"></line>
        <path d="M 1404,612 A 4,4 0,0,1 1400,616" class="nofill"></path>
        <path d="M 1428,612 A 4,4 0,0,0 1432,616" class="nofill"></path>
        <line x1="1432" y1="616" x2="1448" y2="616" class="solid"></line>
        <path d="M 1456,584 A 4,4 0,0,0 1452,588" class="nofill"></path>
        <line x1="1452" y1="588" x2="1452" y2="612" class="solid"></line>
        <line x1="1456" y1="584" x2="1472" y2="584" class="solid"></line>
        <path d="M 1472,584 A 4,4 0,0,1 1476,588" class="nofill"></path>
        <line x1="1476" y1="588" x2="1476" y2="612" class="solid"></line>
        <path d="M 1452,612 A 4,4 0,0,1 1448,616" class="nofill"></path>
        <path d="M 1476,612 A 4,4 0,0,0 1480,616" class="nofill"></path>
        <line x1="1480" y1="616" x2="1496" y2="616" class="solid"></line>
        <path d="M 1504,584 A 4,4 0,0,0 1500,588" class="nofill"></path>
        <line x1="1500" y1="588" x2="1500" y2="612" class="solid"></line>
        <line x1="1504" y1="584" x2="1520" y2="584" class="solid"></line>
        <path d="M 1520,584 A 4,4 0,0,1 1524,588" class="nofill"></path>
        <line x1="1524" y1="588" x2="1524" y2="612" class="solid"></line>
        <path d="M 1500,612 A 4,4 0,0,1 1496,616" class="nofill"></path>
        <path d="M 1524,612 A 4,4 0,0,0 1528,616" class="nofill"></path>
    </g>
</svg>
