<svg xmlns="http://www.w3.org/2000/svg" width="1128" height="1024">
    <style>
        line, path, circle, rect, polygon{stroke:black;stroke-width:1;stroke-opacity:1;fill-opacity:1;stroke-linecap:round;stroke-linejoin:miter;}text{font-family:Iosevka Fixed, monospace;font-size:14px;}rect.backdrop{stroke:none;fill:white;}.broken{stroke-dasharray:8;}.filled{fill:black;}.bg_filled{fill:white;}.nofill{fill:white;}.end_marked_arrow{marker-end:url(#arrow);}.start_marked_arrow{marker-start:url(#arrow);}.end_marked_diamond{marker-end:url(#diamond);}.start_marked_diamond{marker-start:url(#diamond);}.end_marked_circle{marker-end:url(#circle);}.start_marked_circle{marker-start:url(#circle);}.end_marked_open_circle{marker-end:url(#open_circle);}.start_marked_open_circle{marker-start:url(#open_circle);}.end_marked_big_open_circle{marker-end:url(#big_open_circle);}.start_marked_big_open_circle{marker-start:url(#big_open_circle);}
        <!--separator-->
        
    </style>
    <defs>
        <marker id="arrow" viewBox="-2 -2 8 8" refX="4" refY="2" markerWidth="7" markerHeight="7" orient="auto-start-reverse">
            <polygon points="0,0 0,4 4,2 0,0"></polygon>
        </marker>
        <marker id="diamond" viewBox="-2 -2 8 8" refX="4" refY="2" markerWidth="7" markerHeight="7" orient="auto-start-reverse">
            <polygon points="0,2 2,0 4,2 2,4 0,2"></polygon>
        </marker>
        <marker id="circle" viewBox="0 0 8 8" refX="4" refY="4" markerWidth="7" markerHeight="7" orient="auto-start-reverse">
            <circle cx="4" cy="4" r="2" class="filled"></circle>
        </marker>
        <marker id="open_circle" viewBox="0 0 8 8" refX="4" refY="4" markerWidth="7" markerHeight="7" orient="auto-start-reverse">
            <circle cx="4" cy="4" r="2" class="bg_filled"></circle>
        </marker>
        <marker id="big_open_circle" viewBox="0 0 8 8" refX="4" refY="4" markerWidth="7" markerHeight="7" orient="auto-start-reverse">
            <circle cx="4" cy="4" r="3" class="bg_filled"></circle>
        </marker>
    </defs>
    <rect class="backdrop" x="0" y="0" width="1128" height="1024"></rect>
    <circle cx="580" cy="24" r="8" class="nofill"></circle>
    <rect x="500" y="936" width="176" height="48" class="solid nofill" rx="0"></rect>
    <text x="506" y="956" >1010100101000100001</text>
    <text x="506" y="972" >1010100101101111011</text>
    <text x="1114" y="124" >.</text>
    <line x1="144" y1="136" x2="152" y2="136" class="solid"></line>
    <line x1="160" y1="136" x2="168" y2="136" class="solid"></line>
    <line x1="176" y1="136" x2="184" y2="136" class="solid"></line>
    <line x1="192" y1="136" x2="200" y2="136" class="solid"></line>
    <line x1="208" y1="136" x2="216" y2="136" class="solid"></line>
    <line x1="224" y1="136" x2="232" y2="136" class="solid"></line>
    <line x1="240" y1="136" x2="248" y2="136" class="solid"></line>
    <line x1="256" y1="136" x2="264" y2="136" class="solid"></line>
    <line x1="272" y1="136" x2="280" y2="136" class="solid"></line>
    <line x1="288" y1="136" x2="296" y2="136" class="solid"></line>
    <line x1="304" y1="136" x2="312" y2="136" class="solid"></line>
    <line x1="320" y1="136" x2="328" y2="136" class="solid"></line>
    <line x1="336" y1="136" x2="344" y2="136" class="solid"></line>
    <line x1="352" y1="136" x2="360" y2="136" class="solid"></line>
    <line x1="368" y1="136" x2="376" y2="136" class="solid"></line>
    <line x1="384" y1="136" x2="392" y2="136" class="solid"></line>
    <line x1="144" y1="232" x2="152" y2="232" class="solid"></line>
    <line x1="160" y1="232" x2="168" y2="232" class="solid"></line>
    <line x1="176" y1="232" x2="184" y2="232" class="solid"></line>
    <line x1="192" y1="232" x2="200" y2="232" class="solid"></line>
    <line x1="208" y1="232" x2="216" y2="232" class="solid"></line>
    <line x1="224" y1="232" x2="232" y2="232" class="solid"></line>
    <line x1="240" y1="232" x2="248" y2="232" class="solid"></line>
    <line x1="256" y1="232" x2="264" y2="232" class="solid"></line>
    <line x1="272" y1="232" x2="280" y2="232" class="solid"></line>
    <line x1="288" y1="232" x2="296" y2="232" class="solid"></line>
    <line x1="304" y1="232" x2="312" y2="232" class="solid"></line>
    <line x1="320" y1="232" x2="328" y2="232" class="solid"></line>
    <line x1="336" y1="232" x2="344" y2="232" class="solid"></line>
    <line x1="352" y1="232" x2="360" y2="232" class="solid"></line>
    <line x1="368" y1="232" x2="376" y2="232" class="solid"></line>
    <line x1="384" y1="232" x2="392" y2="232" class="solid"></line>
    <line x1="144" y1="904" x2="152" y2="904" class="solid"></line>
    <line x1="160" y1="904" x2="168" y2="904" class="solid"></line>
    <line x1="176" y1="904" x2="184" y2="904" class="solid"></line>
    <line x1="192" y1="904" x2="200" y2="904" class="solid"></line>
    <line x1="208" y1="904" x2="216" y2="904" class="solid"></line>
    <line x1="224" y1="904" x2="232" y2="904" class="solid"></line>
    <line x1="240" y1="904" x2="248" y2="904" class="solid"></line>
    <line x1="256" y1="904" x2="264" y2="904" class="solid"></line>
    <line x1="272" y1="904" x2="280" y2="904" class="solid"></line>
    <line x1="288" y1="904" x2="296" y2="904" class="solid"></line>
    <line x1="304" y1="904" x2="312" y2="904" class="solid"></line>
    <line x1="320" y1="904" x2="328" y2="904" class="solid"></line>
    <line x1="336" y1="904" x2="344" y2="904" class="solid"></line>
    <line x1="352" y1="904" x2="360" y2="904" class="solid"></line>
    <line x1="368" y1="904" x2="376" y2="904" class="solid"></line>
    <line x1="384" y1="904" x2="392" y2="904" class="solid"></line>
    <text x="602" y="44" >użytkownik</text>
    <text x="602" y="124" >widzi stronę internetową</text>
    <text x="146" y="156" >przestrzeń użytkownika</text>
    <text x="410" y="156" >warstwa</text>
    <text x="514" y="156" >odpowiedź http</text>
    <text x="410" y="172" >aplikacji</text>
    <text x="506" y="172" >HTTP/1.1 200 OK</text>
    <text x="146" y="252" >jądro Linux</text>
    <text x="410" y="252" >warstwa</text>
    <text x="562" y="252" >socket</text>
    <text x="410" y="268" >transportowa</text>
    <text x="514" y="300" >nagłówek tcp</text>
    <text x="506" y="316" >src: 80</text>
    <text x="506" y="332" >dst: 230431</text>
    <text x="514" y="348" >odpowiedź http</text>
    <text x="506" y="364" >HTTP/1.1 200 OK</text>
    <text x="410" y="444" >warstwa</text>
    <text x="410" y="460" >sieciowa</text>
    <text x="514" y="460" >nagłówek ip</text>
    <text x="506" y="476" >src: 75.2.92.173</text>
    <text x="506" y="492" >dst: 10.0.0.23</text>
    <text x="514" y="508" >nagłówek tcp</text>
    <text x="506" y="524" >src: 80</text>
    <text x="506" y="540" >dst: 230431</text>
    <text x="514" y="556" >odpowiedź http</text>
    <text x="506" y="572" >GTTP/1.1 200 OK</text>
    <text x="410" y="652" >warstwa</text>
    <text x="410" y="668" >łącza danych</text>
    <text x="514" y="684" >nagłówek ethernet</text>
    <text x="506" y="700" >src AE:DE:65:54:10</text>
    <text x="506" y="716" >dst DE:AD:FB:FD:FD</text>
    <text x="514" y="732" >nagłówek ip</text>
    <text x="506" y="748" >src: 75.2.92.173</text>
    <text x="506" y="764" >dst: 10.0.0.23</text>
    <text x="514" y="780" >nagłówek tcp</text>
    <text x="506" y="796" >src: 80</text>
    <text x="506" y="812" >dst: 230431</text>
    <text x="514" y="828" >odpowiedź http</text>
    <text x="506" y="844" >HTTP/1.1 200 OK</text>
    <text x="146" y="924" >karta sieciowa</text>
    <text x="410" y="924" >warstwa</text>
    <text x="410" y="940" >fizyczna</text>
    <g>
        <line x1="568" y1="40" x2="592" y2="40" class="solid"></line>
        <line x1="580" y1="40" x2="580" y2="56" class="solid"></line>
        <line x1="580" y1="56" x2="568" y2="80" class="solid"></line>
        <line x1="580" y1="56" x2="592" y2="80" class="solid"></line>
    </g>
    <g>
        <polygon points="576,108 580,96 584,108" class="filled"></polygon>
        <line x1="580" y1="108" x2="580" y2="128" class="solid"></line>
    </g>
    <g>
        <line x1="404" y1="136" x2="700" y2="136" class="solid"></line>
        <line x1="404" y1="136" x2="404" y2="1000" class="solid"></line>
        <line x1="700" y1="136" x2="700" y2="1000" class="solid"></line>
        <line x1="404" y1="232" x2="700" y2="232" class="solid"></line>
        <line x1="548" y1="232" x2="548" y2="264" class="solid"></line>
        <line x1="628" y1="232" x2="628" y2="264" class="solid"></line>
        <line x1="548" y1="264" x2="628" y2="264" class="solid"></line>
        <line x1="580" y1="264" x2="580" y2="288" class="solid"></line>
        <line x1="404" y1="424" x2="700" y2="424" class="solid"></line>
        <line x1="404" y1="632" x2="700" y2="632" class="solid"></line>
        <line x1="580" y1="632" x2="580" y2="672" class="solid"></line>
        <line x1="404" y1="904" x2="700" y2="904" class="solid"></line>
        <line x1="580" y1="904" x2="580" y2="928" class="solid"></line>
        <line x1="372" y1="936" x2="404" y2="936" class="solid"></line>
        <line x1="372" y1="936" x2="372" y2="968" class="solid"></line>
        <line x1="404" y1="952" x2="488" y2="952" class="solid"></line>
        <polygon points="488,948 496,952 488,956" class="filled"></polygon>
        <line x1="372" y1="968" x2="404" y2="968" class="solid"></line>
        <line x1="404" y1="1000" x2="700" y2="1000" class="solid"></line>
        <polygon points="576,412 580,400 584,412" class="filled"></polygon>
        <line x1="580" y1="412" x2="580" y2="416" class="solid"></line>
        <line x1="580" y1="424" x2="580" y2="448" class="solid"></line>
    </g>
    <g>
        <line x1="500" y1="152" x2="512" y2="152" class="solid"></line>
        <line x1="500" y1="152" x2="500" y2="200" class="solid"></line>
        <line x1="640" y1="152" x2="676" y2="152" class="solid"></line>
        <line x1="676" y1="152" x2="676" y2="200" class="solid"></line>
        <line x1="500" y1="200" x2="676" y2="200" class="solid"></line>
    </g>
    <g>
        <polygon points="576,220 580,208 584,220" class="filled"></polygon>
        <line x1="580" y1="220" x2="580" y2="224" class="solid"></line>
    </g>
    <g>
        <line x1="500" y1="296" x2="512" y2="296" class="solid"></line>
        <line x1="500" y1="296" x2="500" y2="392" class="solid"></line>
        <line x1="500" y1="344" x2="512" y2="344" class="solid"></line>
        <line x1="624" y1="296" x2="676" y2="296" class="solid"></line>
        <line x1="676" y1="296" x2="676" y2="392" class="solid"></line>
        <line x1="640" y1="344" x2="676" y2="344" class="solid"></line>
        <line x1="500" y1="392" x2="676" y2="392" class="solid"></line>
    </g>
    <g>
        <line x1="500" y1="456" x2="512" y2="456" class="solid"></line>
        <line x1="500" y1="456" x2="500" y2="600" class="solid"></line>
        <line x1="500" y1="504" x2="512" y2="504" class="solid"></line>
        <line x1="500" y1="552" x2="512" y2="552" class="solid"></line>
        <line x1="616" y1="456" x2="676" y2="456" class="solid"></line>
        <line x1="676" y1="456" x2="676" y2="600" class="solid"></line>
        <line x1="624" y1="504" x2="676" y2="504" class="solid"></line>
        <line x1="640" y1="552" x2="676" y2="552" class="solid"></line>
        <line x1="500" y1="600" x2="676" y2="600" class="solid"></line>
    </g>
    <g>
        <polygon points="576,620 580,608 584,620" class="filled"></polygon>
        <line x1="580" y1="620" x2="580" y2="624" class="solid"></line>
    </g>
    <g>
        <line x1="500" y1="680" x2="512" y2="680" class="solid"></line>
        <line x1="500" y1="680" x2="500" y2="872" class="solid"></line>
        <line x1="500" y1="728" x2="512" y2="728" class="solid"></line>
        <line x1="500" y1="776" x2="512" y2="776" class="solid"></line>
        <line x1="500" y1="824" x2="512" y2="824" class="solid"></line>
        <line x1="664" y1="680" x2="676" y2="680" class="solid"></line>
        <line x1="676" y1="680" x2="676" y2="872" class="solid"></line>
        <line x1="616" y1="728" x2="676" y2="728" class="solid"></line>
        <line x1="624" y1="776" x2="676" y2="776" class="solid"></line>
        <line x1="640" y1="824" x2="676" y2="824" class="solid"></line>
        <line x1="500" y1="872" x2="676" y2="872" class="solid"></line>
    </g>
    <g>
        <polygon points="576,892 580,880 584,892" class="filled"></polygon>
        <line x1="580" y1="892" x2="580" y2="896" class="solid"></line>
    </g>
    <g>
        <path d="M 0,936 A 4,4 0,0,1 4,940" class="nofill"></path>
        <line x1="4" y1="940" x2="4" y2="964" class="solid"></line>
        <path d="M 4,964 A 4,4 0,0,0 8,968" class="nofill"></path>
        <line x1="8" y1="968" x2="24" y2="968" class="solid"></line>
        <path d="M 32,936 A 4,4 0,0,0 28,940" class="nofill"></path>
        <line x1="28" y1="940" x2="28" y2="964" class="solid"></line>
        <line x1="32" y1="936" x2="48" y2="936" class="solid"></line>
        <path d="M 48,936 A 4,4 0,0,1 52,940" class="nofill"></path>
        <line x1="52" y1="940" x2="52" y2="964" class="solid"></line>
        <path d="M 28,964 A 4,4 0,0,1 24,968" class="nofill"></path>
        <path d="M 52,964 A 4,4 0,0,0 56,968" class="nofill"></path>
        <line x1="56" y1="968" x2="72" y2="968" class="solid"></line>
        <path d="M 80,936 A 4,4 0,0,0 76,940" class="nofill"></path>
        <line x1="76" y1="940" x2="76" y2="964" class="solid"></line>
        <line x1="80" y1="936" x2="96" y2="936" class="solid"></line>
        <path d="M 96,936 A 4,4 0,0,1 100,940" class="nofill"></path>
        <line x1="100" y1="940" x2="100" y2="964" class="solid"></line>
        <path d="M 76,964 A 4,4 0,0,1 72,968" class="nofill"></path>
        <path d="M 100,964 A 4,4 0,0,0 104,968" class="nofill"></path>
        <line x1="104" y1="968" x2="120" y2="968" class="solid"></line>
        <path d="M 128,936 A 4,4 0,0,0 124,940" class="nofill"></path>
        <line x1="124" y1="940" x2="124" y2="964" class="solid"></line>
        <line x1="128" y1="936" x2="144" y2="936" class="solid"></line>
        <path d="M 144,936 A 4,4 0,0,1 148,940" class="nofill"></path>
        <line x1="148" y1="940" x2="148" y2="964" class="solid"></line>
        <path d="M 124,964 A 4,4 0,0,1 120,968" class="nofill"></path>
        <path d="M 148,964 A 4,4 0,0,0 152,968" class="nofill"></path>
        <line x1="152" y1="968" x2="168" y2="968" class="solid"></line>
        <path d="M 176,936 A 4,4 0,0,0 172,940" class="nofill"></path>
        <line x1="172" y1="940" x2="172" y2="964" class="solid"></line>
        <line x1="176" y1="936" x2="192" y2="936" class="solid"></line>
        <path d="M 192,936 A 4,4 0,0,1 196,940" class="nofill"></path>
        <line x1="196" y1="940" x2="196" y2="964" class="solid"></line>
        <path d="M 172,964 A 4,4 0,0,1 168,968" class="nofill"></path>
        <path d="M 196,964 A 4,4 0,0,0 200,968" class="nofill"></path>
        <line x1="200" y1="968" x2="216" y2="968" class="solid"></line>
        <path d="M 224,936 A 4,4 0,0,0 220,940" class="nofill"></path>
        <line x1="220" y1="940" x2="220" y2="964" class="solid"></line>
        <line x1="224" y1="936" x2="240" y2="936" class="solid"></line>
        <path d="M 240,936 A 4,4 0,0,1 244,940" class="nofill"></path>
        <line x1="244" y1="940" x2="244" y2="964" class="solid"></line>
        <path d="M 220,964 A 4,4 0,0,1 216,968" class="nofill"></path>
        <path d="M 244,964 A 4,4 0,0,0 248,968" class="nofill"></path>
        <line x1="248" y1="968" x2="264" y2="968" class="solid"></line>
        <path d="M 272,936 A 4,4 0,0,0 268,940" class="nofill"></path>
        <line x1="268" y1="940" x2="268" y2="964" class="solid"></line>
        <line x1="272" y1="936" x2="288" y2="936" class="solid"></line>
        <path d="M 288,936 A 4,4 0,0,1 292,940" class="nofill"></path>
        <line x1="292" y1="940" x2="292" y2="964" class="solid"></line>
        <path d="M 268,964 A 4,4 0,0,1 264,968" class="nofill"></path>
        <path d="M 292,964 A 4,4 0,0,0 296,968" class="nofill"></path>
        <line x1="296" y1="968" x2="312" y2="968" class="solid"></line>
        <path d="M 320,936 A 4,4 0,0,0 316,940" class="nofill"></path>
        <line x1="316" y1="940" x2="316" y2="964" class="solid"></line>
        <line x1="320" y1="936" x2="336" y2="936" class="solid"></line>
        <path d="M 336,936 A 4,4 0,0,1 340,940" class="nofill"></path>
        <line x1="340" y1="940" x2="340" y2="964" class="solid"></line>
        <path d="M 316,964 A 4,4 0,0,1 312,968" class="nofill"></path>
        <path d="M 340,964 A 4,4 0,0,0 344,968" class="nofill"></path>
        <line x1="344" y1="968" x2="360" y2="968" class="solid"></line>
        <path d="M 368,936 A 4,4 0,0,0 364,940" class="nofill"></path>
        <line x1="364" y1="940" x2="364" y2="964" class="solid"></line>
        <path d="M 364,964 A 4,4 0,0,1 360,968" class="nofill"></path>
    </g>
</svg>
