<svg xmlns="http://www.w3.org/2000/svg" width="584" height="128">
<style>
line, path, circle, rect, polygon{stroke:black;stroke-width:1;stroke-opacity:1;fill-opacity:1;stroke-linecap:round;stroke-linejoin:miter;}text{font-family:Iosevka Fixed, monospace;font-size:14px;}rect.backdrop{stroke:none;fill:white;}.broken{stroke-dasharray:8;}.filled{fill:black;}.bg_filled{fill:white;}.nofill{fill:white;}.end_marked_arrow{marker-end:url(#arrow);}.start_marked_arrow{marker-start:url(#arrow);}.end_marked_diamond{marker-end:url(#diamond);}.start_marked_diamond{marker-start:url(#diamond);}.end_marked_circle{marker-end:url(#circle);}.start_marked_circle{marker-start:url(#circle);}.end_marked_open_circle{marker-end:url(#open_circle);}.start_marked_open_circle{marker-start:url(#open_circle);}.end_marked_big_open_circle{marker-end:url(#big_open_circle);}.start_marked_big_open_circle{marker-start:url(#big_open_circle);}
<!--separator-->

</style>
<defs>
<marker id="arrow" viewBox="-2 -2 8 8" refX="4" refY="2" markerWidth="7" markerHeight="7" orient="auto-start-reverse">
<polygon points="0,0 0,4 4,2 0,0"></polygon>
</marker>
<marker id="diamond" viewBox="-2 -2 8 8" refX="4" refY="2" markerWidth="7" markerHeight="7" orient="auto-start-reverse">
<polygon points="0,2 2,0 4,2 2,4 0,2"></polygon>
</marker>
<marker id="circle" viewBox="0 0 8 8" refX="4" refY="4" markerWidth="7" markerHeight="7" orient="auto-start-reverse">
<circle cx="4" cy="4" r="2" class="filled"></circle>
</marker>
<marker id="open_circle" viewBox="0 0 8 8" refX="4" refY="4" markerWidth="7" markerHeight="7" orient="auto-start-reverse">
<circle cx="4" cy="4" r="2" class="bg_filled"></circle>
</marker>
<marker id="big_open_circle" viewBox="0 0 8 8" refX="4" refY="4" markerWidth="7" markerHeight="7" orient="auto-start-reverse">
<circle cx="4" cy="4" r="3" class="bg_filled"></circle>
</marker>
</defs>
<rect class="backdrop" x="0" y="0" width="584" height="128"></rect>
<text x="98" y="60" >mqd</text>
<line x1="120" y1="64" x2="128" y2="64" class="solid"></line>
<text x="130" y="60" >t</text>
<text x="442" y="60" >mqd</text>
<line x1="464" y1="64" x2="472" y2="64" class="solid"></line>
<text x="474" y="60" >t</text>
<text x="50" y="12" >proces</text>
<text x="106" y="12" >A</text>
<text x="474" y="12" >proces</text>
<text x="530" y="12" >B</text>
<g>
<line x1="4" y1="8" x2="40" y2="8" class="solid"></line>
<line x1="4" y1="8" x2="4" y2="104" class="solid"></line>
<line x1="120" y1="8" x2="148" y2="8" class="solid"></line>
<line x1="148" y1="8" x2="148" y2="104" class="solid"></line>
<line x1="76" y1="40" x2="148" y2="40" class="solid"></line>
<line x1="76" y1="40" x2="76" y2="72" class="solid"></line>
<line x1="148" y1="56" x2="176" y2="56" class="solid"></line>
<polygon points="176,52 184,56 176,60" class="filled"></polygon>
<line x1="76" y1="72" x2="148" y2="72" class="solid"></line>
<line x1="4" y1="104" x2="148" y2="104" class="solid"></line>
</g>
<g>
<line x1="428" y1="8" x2="464" y2="8" class="solid"></line>
<line x1="428" y1="8" x2="428" y2="104" class="solid"></line>
<line x1="428" y1="40" x2="500" y2="40" class="solid"></line>
<line x1="500" y1="40" x2="500" y2="72" class="solid"></line>
<line x1="428" y1="72" x2="500" y2="72" class="solid"></line>
<line x1="544" y1="8" x2="572" y2="8" class="solid"></line>
<line x1="572" y1="8" x2="572" y2="104" class="solid"></line>
<line x1="428" y1="104" x2="572" y2="104" class="solid"></line>
</g>
<g>
<line x1="188" y1="40" x2="380" y2="40" class="solid"></line>
<line x1="188" y1="40" x2="188" y2="72" class="solid"></line>
<line x1="220" y1="40" x2="220" y2="72" class="solid"></line>
<line x1="252" y1="40" x2="252" y2="72" class="solid"></line>
<line x1="284" y1="40" x2="284" y2="72" class="solid"></line>
<line x1="316" y1="40" x2="316" y2="72" class="solid"></line>
<line x1="348" y1="40" x2="348" y2="72" class="solid"></line>
<line x1="380" y1="40" x2="380" y2="72" class="solid"></line>
<line x1="380" y1="56" x2="416" y2="56" class="solid"></line>
<polygon points="416,52 424,56 416,60" class="filled"></polygon>
<line x1="188" y1="72" x2="380" y2="72" class="solid"></line>
</g>
</svg>
