<svg xmlns="http://www.w3.org/2000/svg" width="448" height="128">
<style>
line, path, circle, rect, polygon{stroke:black;stroke-width:1;stroke-opacity:1;fill-opacity:1;stroke-linecap:round;stroke-linejoin:miter;}text{font-family:Iosevka Fixed, monospace;font-size:14px;}rect.backdrop{stroke:none;fill:white;}.broken{stroke-dasharray:8;}.filled{fill:black;}.bg_filled{fill:white;}.nofill{fill:white;}.end_marked_arrow{marker-end:url(#arrow);}.start_marked_arrow{marker-start:url(#arrow);}.end_marked_diamond{marker-end:url(#diamond);}.start_marked_diamond{marker-start:url(#diamond);}.end_marked_circle{marker-end:url(#circle);}.start_marked_circle{marker-start:url(#circle);}.end_marked_open_circle{marker-end:url(#open_circle);}.start_marked_open_circle{marker-start:url(#open_circle);}.end_marked_big_open_circle{marker-end:url(#big_open_circle);}.start_marked_big_open_circle{marker-start:url(#big_open_circle);}
<!--separator-->

</style>
<defs>
<marker id="arrow" viewBox="-2 -2 8 8" refX="4" refY="2" markerWidth="7" markerHeight="7" orient="auto-start-reverse">
<polygon points="0,0 0,4 4,2 0,0"></polygon>
</marker>
<marker id="diamond" viewBox="-2 -2 8 8" refX="4" refY="2" markerWidth="7" markerHeight="7" orient="auto-start-reverse">
<polygon points="0,2 2,0 4,2 2,4 0,2"></polygon>
</marker>
<marker id="circle" viewBox="0 0 8 8" refX="4" refY="4" markerWidth="7" markerHeight="7" orient="auto-start-reverse">
<circle cx="4" cy="4" r="2" class="filled"></circle>
</marker>
<marker id="open_circle" viewBox="0 0 8 8" refX="4" refY="4" markerWidth="7" markerHeight="7" orient="auto-start-reverse">
<circle cx="4" cy="4" r="2" class="bg_filled"></circle>
</marker>
<marker id="big_open_circle" viewBox="0 0 8 8" refX="4" refY="4" markerWidth="7" markerHeight="7" orient="auto-start-reverse">
<circle cx="4" cy="4" r="3" class="bg_filled"></circle>
</marker>
</defs>
<rect class="backdrop" x="0" y="0" width="448" height="128"></rect>
<text x="82" y="60" >write</text>
<line x1="120" y1="64" x2="128" y2="64" class="solid"></line>
<text x="130" y="60" >fd</text>
<text x="202" y="60" >fifo</text>
<text x="298" y="60" >read</text>
<line x1="328" y1="64" x2="336" y2="64" class="solid"></line>
<text x="338" y="60" >fd</text>
<text x="50" y="12" >proces</text>
<text x="106" y="12" >A</text>
<text x="338" y="12" >proces</text>
<text x="394" y="12" >B</text>
<g>
<line x1="4" y1="8" x2="40" y2="8" class="solid"></line>
<line x1="4" y1="8" x2="4" y2="104" class="solid"></line>
<line x1="120" y1="8" x2="148" y2="8" class="solid"></line>
<line x1="148" y1="8" x2="148" y2="104" class="solid"></line>
<line x1="76" y1="40" x2="148" y2="40" class="solid"></line>
<line x1="76" y1="40" x2="76" y2="72" class="solid"></line>
<line x1="148" y1="56" x2="176" y2="56" class="solid"></line>
<polygon points="176,52 184,56 176,60" class="filled"></polygon>
<line x1="76" y1="72" x2="148" y2="72" class="solid"></line>
<line x1="4" y1="104" x2="148" y2="104" class="solid"></line>
</g>
<g>
<line x1="292" y1="8" x2="328" y2="8" class="solid"></line>
<line x1="292" y1="8" x2="292" y2="104" class="solid"></line>
<line x1="292" y1="40" x2="364" y2="40" class="solid"></line>
<line x1="364" y1="40" x2="364" y2="72" class="solid"></line>
<line x1="292" y1="72" x2="364" y2="72" class="solid"></line>
<line x1="408" y1="8" x2="436" y2="8" class="solid"></line>
<line x1="436" y1="8" x2="436" y2="104" class="solid"></line>
<line x1="292" y1="104" x2="436" y2="104" class="solid"></line>
</g>
<g>
<line x1="188" y1="40" x2="244" y2="40" class="solid"></line>
<line x1="188" y1="40" x2="188" y2="72" class="solid"></line>
<line x1="244" y1="40" x2="244" y2="72" class="solid"></line>
<line x1="244" y1="56" x2="280" y2="56" class="solid"></line>
<polygon points="280,52 288,56 280,60" class="filled"></polygon>
<line x1="188" y1="72" x2="244" y2="72" class="solid"></line>
</g>
</svg>
