<?xml version="1.0" encoding="us-ascii" standalone="no"?><svg xmlns="http://www.w3.org/2000/svg" xmlns:xlink="http://www.w3.org/1999/xlink" contentStyleType="text/css" height="831px" preserveAspectRatio="none" style="width:1019px;height:831px;background:#FFFFFF;" version="1.1" viewBox="0 0 1019 831" width="1019px" zoomAndPan="magnify"><defs/><g><ellipse cx="514" cy="20" fill="#222222" rx="10" ry="10" style="stroke:#222222;stroke-width:1.0;"/><rect fill="#F1F1F1" height="34.1328" rx="12.5" ry="12.5" style="stroke:#181818;stroke-width:0.5;" width="116" x="456" y="50"/><text fill="#000000" font-family="sans-serif" font-size="12" lengthAdjust="spacing" textLength="96" x="466" y="71.6016">pthread_create()</text><rect fill="#555555" height="6" rx="2.5" ry="2.5" style="stroke:#555555;stroke-width:1.0;" width="997.5" x="11" y="104.1328"/><rect fill="none" height="544.4521" style="stroke:#000000;stroke-width:1.5;" width="624.5" x="23" y="140.7881"/><path d="M130,140.7881 L130,150.2764 L120,160.2764 L23,160.2764 " fill="none" style="stroke:#000000;stroke-width:1.5;"/><text fill="#000000" font-family="sans-serif" font-size="14" font-weight="bold" lengthAdjust="spacing" textLength="43" x="26" y="155.3232">w&#261;tek</text><text fill="#000000" font-family="sans-serif" font-size="14" lengthAdjust="spacing" textLength="50" x="73" y="155.3232">g&#322;&#243;wny</text><rect fill="#F1F1F1" height="34.1328" rx="12.5" ry="12.5" style="stroke:#181818;stroke-width:0.5;" width="91" x="287.5" y="225.2764"/><text fill="#000000" font-family="sans-serif" font-size="12" lengthAdjust="spacing" textLength="71" x="297.5" y="246.8779">Wczytaj linie</text><polygon fill="#F1F1F1" points="321,294.4092,345,294.4092,357,306.4092,345,318.4092,321,318.4092,309,306.4092,321,294.4092" style="stroke:#181818;stroke-width:0.5;"/><text fill="#000000" font-family="sans-serif" font-size="11" lengthAdjust="spacing" textLength="22" x="322" y="310.5664">linia</text><rect fill="#F1F1F1" height="34.1328" rx="12.5" ry="12.5" style="stroke:#181818;stroke-width:0.5;" width="145" x="76" y="354.3193"/><text fill="#000000" font-family="sans-serif" font-size="12" lengthAdjust="spacing" textLength="125" x="86" y="375.9209">pthread_mutex_lock()</text><rect fill="#F1F1F1" height="34.1328" rx="12.5" ry="12.5" style="stroke:#181818;stroke-width:0.5;" width="195" x="51" y="423.4521"/><text fill="#000000" font-family="sans-serif" font-size="12" lengthAdjust="spacing" textLength="175" x="61" y="445.0537">Dodaj do tablicy przypomnie&#324;</text><rect fill="#F1F1F1" height="34.1328" rx="12.5" ry="12.5" style="stroke:#181818;stroke-width:0.5;" width="159" x="69" y="492.585"/><text fill="#000000" font-family="sans-serif" font-size="12" lengthAdjust="spacing" textLength="139" x="79" y="514.1865">pthread_mutex_unlock()</text><rect fill="#F1F1F1" height="34.1328" rx="12.5" ry="12.5" style="stroke:#181818;stroke-width:0.5;" width="145" x="278.5" y="354.3193"/><text fill="#000000" font-family="sans-serif" font-size="12" lengthAdjust="spacing" textLength="125" x="288.5" y="375.9209">pthread_mutex_lock()</text><rect fill="#F1F1F1" height="34.1328" rx="12.5" ry="12.5" style="stroke:#181818;stroke-width:0.5;" width="190" x="256" y="423.4521"/><text fill="#000000" font-family="sans-serif" font-size="12" lengthAdjust="spacing" textLength="170" x="266" y="445.0537">Wy&#347;wietl tablic&#281; przypomnie&#324;</text><rect fill="#F1F1F1" height="34.1328" rx="12.5" ry="12.5" style="stroke:#181818;stroke-width:0.5;" width="159" x="271.5" y="492.585"/><text fill="#000000" font-family="sans-serif" font-size="12" lengthAdjust="spacing" textLength="139" x="281.5" y="514.1865">pthread_mutex_unlock()</text><rect fill="#F1F1F1" height="34.1328" rx="12.5" ry="12.5" style="stroke:#181818;stroke-width:0.5;" width="145" x="467.5" y="354.3193"/><text fill="#000000" font-family="sans-serif" font-size="12" lengthAdjust="spacing" textLength="125" x="477.5" y="375.9209">pthread_mutex_lock()</text><rect fill="#F1F1F1" height="34.1328" rx="12.5" ry="12.5" style="stroke:#181818;stroke-width:0.5;" width="98" x="491" y="423.4521"/><text fill="#000000" font-family="sans-serif" font-size="12" lengthAdjust="spacing" textLength="78" x="501" y="445.0537">koniec = true</text><rect fill="#F1F1F1" height="34.1328" rx="12.5" ry="12.5" style="stroke:#181818;stroke-width:0.5;" width="159" x="460.5" y="492.585"/><text fill="#000000" font-family="sans-serif" font-size="12" lengthAdjust="spacing" textLength="139" x="470.5" y="514.1865">pthread_mutex_unlock()</text><polygon fill="#F1F1F1" points="333,617.2402,333,617.2402,345,629.2402,333,641.2402,333,641.2402,321,629.2402,333,617.2402" style="stroke:#181818;stroke-width:0.5;"/><polygon fill="#F1F1F1" points="314,177.2764,352,177.2764,364,189.2764,352,201.2764,314,201.2764,302,189.2764,314,177.2764" style="stroke:#181818;stroke-width:0.5;"/><text fill="#000000" font-family="sans-serif" font-size="11" lengthAdjust="spacing" textLength="38" x="314" y="193.4336">!koniec</text><rect fill="none" height="577.7627" style="stroke:#000000;stroke-width:1.5;" width="339" x="657.5" y="120.1328"/><path d="M805.5,120.1328 L805.5,129.6211 L795.5,139.6211 L657.5,139.6211 " fill="none" style="stroke:#000000;stroke-width:1.5;"/><text fill="#000000" font-family="sans-serif" font-size="14" font-weight="bold" lengthAdjust="spacing" textLength="43" x="660.5" y="134.668">w&#261;tek</text><text fill="#000000" font-family="sans-serif" font-size="14" lengthAdjust="spacing" textLength="91" x="707.5" y="134.668">przypomnie&#324;</text><rect fill="#F1F1F1" height="34.1328" rx="12.5" ry="12.5" style="stroke:#181818;stroke-width:0.5;" width="224" x="709" y="204.6211"/><text fill="#000000" font-family="sans-serif" font-size="12" lengthAdjust="spacing" textLength="204" x="719" y="226.2227">Odczytaj aktualn&#261; godzin&#281; i minut&#281;</text><rect fill="#F1F1F1" height="34.1328" rx="12.5" ry="12.5" style="stroke:#181818;stroke-width:0.5;" width="145" x="748.5" y="273.7539"/><text fill="#000000" font-family="sans-serif" font-size="12" lengthAdjust="spacing" textLength="125" x="758.5" y="295.3555">pthread_mutex_lock()</text><rect fill="#F1F1F1" height="34.1328" rx="12.5" ry="12.5" style="stroke:#181818;stroke-width:0.5;" width="158" x="742" y="391.3643"/><text fill="#000000" font-family="sans-serif" font-size="12" lengthAdjust="spacing" textLength="138" x="752" y="412.9658">Wyswietl przypomnienie</text><rect fill="#F1F1F1" height="34.1328" rx="12.5" ry="12.5" style="stroke:#181818;stroke-width:0.5;" width="190" x="726" y="460.4971"/><text fill="#000000" font-family="sans-serif" font-size="12" lengthAdjust="spacing" textLength="170" x="736" y="482.0986">Usu&#324; przypomnienie z tablicy</text><polygon fill="#F1F1F1" points="697.5,342.8867,944.5,342.8867,956.5,354.8867,944.5,366.8867,697.5,366.8867,685.5,354.8867,697.5,342.8867" style="stroke:#181818;stroke-width:0.5;"/><text fill="#000000" font-family="sans-serif" font-size="11" lengthAdjust="spacing" textLength="16" x="825" y="377.5215">tak</text><text fill="#000000" font-family="sans-serif" font-size="11" lengthAdjust="spacing" textLength="247" x="697.5" y="359.0439">Istnieje przypomnienie o tej godzinie i minucie</text><text fill="#000000" font-family="sans-serif" font-size="11" lengthAdjust="spacing" textLength="16" x="956.5" y="352.5664">nie</text><polygon fill="#F1F1F1" points="821,519.1074,833,531.1074,821,543.1074,809,531.1074,821,519.1074" style="stroke:#181818;stroke-width:0.5;"/><rect fill="#F1F1F1" height="34.1328" rx="12.5" ry="12.5" style="stroke:#181818;stroke-width:0.5;" width="159" x="741.5" y="563.1074"/><text fill="#000000" font-family="sans-serif" font-size="12" lengthAdjust="spacing" textLength="139" x="751.5" y="584.709">pthread_mutex_unlock()</text><rect fill="#F1F1F1" height="34.1328" rx="12.5" ry="12.5" style="stroke:#181818;stroke-width:0.5;" width="67" x="787.5" y="627.7627"/><text fill="#000000" font-family="sans-serif" font-size="12" lengthAdjust="spacing" textLength="47" x="797.5" y="649.3643">sleep(1)</text><polygon fill="#F1F1F1" points="802,156.6211,840,156.6211,852,168.6211,840,180.6211,802,180.6211,790,168.6211,802,156.6211" style="stroke:#181818;stroke-width:0.5;"/><text fill="#000000" font-family="sans-serif" font-size="11" lengthAdjust="spacing" textLength="38" x="802" y="172.7783">!koniec</text><rect fill="#555555" height="6" rx="2.5" ry="2.5" style="stroke:#555555;stroke-width:1.0;" width="997.5" x="11" y="717.8955"/><rect fill="#F1F1F1" height="34.1328" rx="12.5" ry="12.5" style="stroke:#181818;stroke-width:0.5;" width="101" x="463.5" y="743.8955"/><text fill="#000000" font-family="sans-serif" font-size="12" lengthAdjust="spacing" textLength="81" x="473.5" y="765.4971">pthread_join()</text><ellipse cx="514" cy="809.0283" fill="none" rx="11" ry="11" style="stroke:#222222;stroke-width:1.0;"/><ellipse cx="514" cy="809.0283" fill="#222222" rx="6" ry="6" style="stroke:#222222;stroke-width:1.0;"/><line style="stroke:#181818;stroke-width:1.0;" x1="514" x2="514" y1="30" y2="50"/><polygon fill="#181818" points="510,40,514,50,518,40,514,44" style="stroke:#181818;stroke-width:1.0;"/><line style="stroke:#181818;stroke-width:1.0;" x1="148.5" x2="148.5" y1="388.4521" y2="423.4521"/><polygon fill="#181818" points="144.5,413.4521,148.5,423.4521,152.5,413.4521,148.5,417.4521" style="stroke:#181818;stroke-width:1.0;"/><line style="stroke:#181818;stroke-width:1.0;" x1="148.5" x2="148.5" y1="457.585" y2="492.585"/><polygon fill="#181818" points="144.5,482.585,148.5,492.585,152.5,482.585,148.5,486.585" style="stroke:#181818;stroke-width:1.0;"/><line style="stroke:#181818;stroke-width:1.0;" x1="351" x2="351" y1="388.4521" y2="423.4521"/><polygon fill="#181818" points="347,413.4521,351,423.4521,355,413.4521,351,417.4521" style="stroke:#181818;stroke-width:1.0;"/><line style="stroke:#181818;stroke-width:1.0;" x1="351" x2="351" y1="457.585" y2="492.585"/><polygon fill="#181818" points="347,482.585,351,492.585,355,482.585,351,486.585" style="stroke:#181818;stroke-width:1.0;"/><line style="stroke:#181818;stroke-width:1.0;" x1="540" x2="540" y1="388.4521" y2="423.4521"/><polygon fill="#181818" points="536,413.4521,540,423.4521,544,413.4521,540,417.4521" style="stroke:#181818;stroke-width:1.0;"/><line style="stroke:#181818;stroke-width:1.0;" x1="540" x2="540" y1="457.585" y2="492.585"/><polygon fill="#181818" points="536,482.585,540,492.585,544,482.585,540,486.585" style="stroke:#181818;stroke-width:1.0;"/><line style="stroke:#181818;stroke-width:1.0;" x1="309" x2="148.5" y1="306.4092" y2="306.4092"/><line style="stroke:#181818;stroke-width:1.0;" x1="148.5" x2="148.5" y1="306.4092" y2="354.3193"/><polygon fill="#181818" points="144.5,344.3193,148.5,354.3193,152.5,344.3193,148.5,348.3193" style="stroke:#181818;stroke-width:1.0;"/><text fill="#000000" font-family="sans-serif" font-size="11" lengthAdjust="spacing" textLength="52" x="148.5" y="334.5215">H:M Tekst</text><line style="stroke:#181818;stroke-width:1.0;" x1="357" x2="540" y1="306.4092" y2="306.4092"/><line style="stroke:#181818;stroke-width:1.0;" x1="540" x2="540" y1="306.4092" y2="354.3193"/><polygon fill="#181818" points="536,344.3193,540,354.3193,544,344.3193,540,348.3193" style="stroke:#181818;stroke-width:1.0;"/><text fill="#000000" font-family="sans-serif" font-size="11" lengthAdjust="spacing" textLength="20" x="540" y="334.5215">exit</text><line style="stroke:#181818;stroke-width:1.0;" x1="333" x2="333" y1="318.4092" y2="330.3792"/><line style="stroke:#181818;stroke-width:1.0;" x1="333" x2="351" y1="330.3792" y2="330.3792"/><line style="stroke:#181818;stroke-width:1.0;" x1="351" x2="351" y1="330.3792" y2="354.3193"/><polygon fill="#181818" points="347,344.3193,351,354.3193,355,344.3193,351,348.3193" style="stroke:#181818;stroke-width:1.0;"/><text fill="#000000" font-family="sans-serif" font-size="11" lengthAdjust="spacing" textLength="16" x="333" y="335.5215">list</text><line style="stroke:#181818;stroke-width:1.0;" x1="148.5" x2="148.5" y1="526.7178" y2="629.2402"/><line style="stroke:#181818;stroke-width:1.0;" x1="148.5" x2="321" y1="629.2402" y2="629.2402"/><polygon fill="#181818" points="311,625.2402,321,629.2402,311,633.2402,315,629.2402" style="stroke:#181818;stroke-width:1.0;"/><line style="stroke:#181818;stroke-width:1.0;" x1="540" x2="540" y1="526.7178" y2="629.2402"/><line style="stroke:#181818;stroke-width:1.0;" x1="540" x2="345" y1="629.2402" y2="629.2402"/><polygon fill="#181818" points="355,625.2402,345,629.2402,355,633.2402,351,629.2402" style="stroke:#181818;stroke-width:1.0;"/><line style="stroke:#181818;stroke-width:1.0;" x1="351" x2="351" y1="526.7178" y2="566.7178"/><line style="stroke:#181818;stroke-width:1.0;" x1="351" x2="333" y1="566.7178" y2="566.7178"/><line style="stroke:#181818;stroke-width:1.0;" x1="333" x2="333" y1="566.7178" y2="617.2402"/><polygon fill="#181818" points="329,607.2402,333,617.2402,337,607.2402,333,611.2402" style="stroke:#181818;stroke-width:1.0;"/><line style="stroke:#181818;stroke-width:1.0;" x1="333" x2="333" y1="259.4092" y2="294.4092"/><polygon fill="#181818" points="329,284.4092,333,294.4092,337,284.4092,333,288.4092" style="stroke:#181818;stroke-width:1.0;"/><line style="stroke:#181818;stroke-width:1.0;" x1="333" x2="333" y1="201.2764" y2="225.2764"/><polygon fill="#181818" points="329,215.2764,333,225.2764,337,215.2764,333,219.2764" style="stroke:#181818;stroke-width:1.0;"/><line style="stroke:#181818;stroke-width:1.0;" x1="333" x2="333" y1="641.2402" y2="653.2402"/><line style="stroke:#181818;stroke-width:1.0;" x1="333" x2="631.5" y1="653.2402" y2="653.2402"/><polygon fill="#181818" points="627.5,440.9971,631.5,430.9971,635.5,440.9971,631.5,436.9971" style="stroke:#181818;stroke-width:1.0;"/><line style="stroke:#181818;stroke-width:1.0;" x1="631.5" x2="631.5" y1="189.2764" y2="653.2402"/><line style="stroke:#181818;stroke-width:1.0;" x1="631.5" x2="364" y1="189.2764" y2="189.2764"/><polygon fill="#181818" points="374,185.2764,364,189.2764,374,193.2764,370,189.2764" style="stroke:#181818;stroke-width:1.0;"/><line style="stroke:#181818;stroke-width:1.0;" x1="302" x2="39" y1="189.2764" y2="189.2764"/><polygon fill="#181818" points="35,426.9971,39,436.9971,43,426.9971,39,430.9971" style="stroke:#181818;stroke-width:1.0;"/><line style="stroke:#181818;stroke-width:1.0;" x1="39" x2="39" y1="189.2764" y2="665.2402"/><line style="stroke:#181818;stroke-width:1.0;" x1="39" x2="333" y1="665.2402" y2="665.2402"/><line style="stroke:#181818;stroke-width:1.0;" x1="333" x2="333" y1="665.2402" y2="717.8955"/><polygon fill="#181818" points="329,707.8955,333,717.8955,337,707.8955,333,711.8955" style="stroke:#181818;stroke-width:1.0;"/><line style="stroke:#181818;stroke-width:1.0;" x1="821" x2="821" y1="238.7539" y2="273.7539"/><polygon fill="#181818" points="817,263.7539,821,273.7539,825,263.7539,821,267.7539" style="stroke:#181818;stroke-width:1.0;"/><line style="stroke:#181818;stroke-width:1.0;" x1="821" x2="821" y1="425.4971" y2="460.4971"/><polygon fill="#181818" points="817,450.4971,821,460.4971,825,450.4971,821,454.4971" style="stroke:#181818;stroke-width:1.0;"/><line style="stroke:#181818;stroke-width:1.0;" x1="821" x2="821" y1="366.8867" y2="391.3643"/><polygon fill="#181818" points="817,381.3643,821,391.3643,825,381.3643,821,385.3643" style="stroke:#181818;stroke-width:1.0;"/><line style="stroke:#181818;stroke-width:1.0;" x1="956.5" x2="968.5" y1="354.8867" y2="354.8867"/><polygon fill="#181818" points="964.5,432.9971,968.5,442.9971,972.5,432.9971,968.5,436.9971" style="stroke:#181818;stroke-width:1.0;"/><line style="stroke:#181818;stroke-width:1.0;" x1="968.5" x2="968.5" y1="354.8867" y2="531.1074"/><line style="stroke:#181818;stroke-width:1.0;" x1="968.5" x2="833" y1="531.1074" y2="531.1074"/><polygon fill="#181818" points="843,527.1074,833,531.1074,843,535.1074,839,531.1074" style="stroke:#181818;stroke-width:1.0;"/><line style="stroke:#181818;stroke-width:1.0;" x1="821" x2="821" y1="494.6299" y2="519.1074"/><polygon fill="#181818" points="817,509.1074,821,519.1074,825,509.1074,821,513.1074" style="stroke:#181818;stroke-width:1.0;"/><line style="stroke:#181818;stroke-width:1.0;" x1="821" x2="821" y1="307.8867" y2="342.8867"/><polygon fill="#181818" points="817,332.8867,821,342.8867,825,332.8867,821,336.8867" style="stroke:#181818;stroke-width:1.0;"/><line style="stroke:#181818;stroke-width:1.0;" x1="821" x2="821" y1="543.1074" y2="563.1074"/><polygon fill="#181818" points="817,553.1074,821,563.1074,825,553.1074,821,557.1074" style="stroke:#181818;stroke-width:1.0;"/><line style="stroke:#181818;stroke-width:1.0;" x1="821" x2="821" y1="597.2402" y2="627.7627"/><polygon fill="#181818" points="817,617.7627,821,627.7627,825,617.7627,821,621.7627" style="stroke:#181818;stroke-width:1.0;"/><line style="stroke:#181818;stroke-width:1.0;" x1="821" x2="821" y1="180.6211" y2="204.6211"/><polygon fill="#181818" points="817,194.6211,821,204.6211,825,194.6211,821,198.6211" style="stroke:#181818;stroke-width:1.0;"/><line style="stroke:#181818;stroke-width:1.0;" x1="821" x2="821" y1="661.8955" y2="673.8955"/><line style="stroke:#181818;stroke-width:1.0;" x1="821" x2="980.5" y1="673.8955" y2="673.8955"/><polygon fill="#181818" points="976.5,440.9971,980.5,430.9971,984.5,440.9971,980.5,436.9971" style="stroke:#181818;stroke-width:1.0;"/><line style="stroke:#181818;stroke-width:1.0;" x1="980.5" x2="980.5" y1="168.6211" y2="673.8955"/><line style="stroke:#181818;stroke-width:1.0;" x1="980.5" x2="852" y1="168.6211" y2="168.6211"/><polygon fill="#181818" points="862,164.6211,852,168.6211,862,172.6211,858,168.6211" style="stroke:#181818;stroke-width:1.0;"/><line style="stroke:#181818;stroke-width:1.0;" x1="790" x2="673.5" y1="168.6211" y2="168.6211"/><polygon fill="#181818" points="669.5,426.9971,673.5,436.9971,677.5,426.9971,673.5,430.9971" style="stroke:#181818;stroke-width:1.0;"/><line style="stroke:#181818;stroke-width:1.0;" x1="673.5" x2="673.5" y1="168.6211" y2="685.8955"/><line style="stroke:#181818;stroke-width:1.0;" x1="673.5" x2="821" y1="685.8955" y2="685.8955"/><line style="stroke:#181818;stroke-width:1.0;" x1="821" x2="821" y1="685.8955" y2="717.8955"/><polygon fill="#181818" points="817,707.8955,821,717.8955,825,707.8955,821,711.8955" style="stroke:#181818;stroke-width:1.0;"/><line style="stroke:#181818;stroke-width:1.0;" x1="333" x2="333" y1="110.1328" y2="177.2764"/><polygon fill="#181818" points="329,167.2764,333,177.2764,337,167.2764,333,171.2764" style="stroke:#181818;stroke-width:1.0;"/><line style="stroke:#181818;stroke-width:1.0;" x1="821" x2="821" y1="110.1328" y2="156.6211"/><polygon fill="#181818" points="817,146.6211,821,156.6211,825,146.6211,821,150.6211" style="stroke:#181818;stroke-width:1.0;"/><line style="stroke:#181818;stroke-width:1.0;" x1="514" x2="514" y1="84.1328" y2="104.1328"/><polygon fill="#181818" points="510,94.1328,514,104.1328,518,94.1328,514,98.1328" style="stroke:#181818;stroke-width:1.0;"/><line style="stroke:#181818;stroke-width:1.0;" x1="514" x2="514" y1="723.8955" y2="743.8955"/><polygon fill="#181818" points="510,733.8955,514,743.8955,518,733.8955,514,737.8955" style="stroke:#181818;stroke-width:1.0;"/><line style="stroke:#181818;stroke-width:1.0;" x1="514" x2="514" y1="778.0283" y2="798.0283"/><polygon fill="#181818" points="510,788.0283,514,798.0283,518,788.0283,514,792.0283" style="stroke:#181818;stroke-width:1.0;"/><!--SRC=[dLD1JiCm43mdhrXwIdhZceeR1pWWBg0UAvDicqrSEuetIbF41RMFg7W6Jw3v5quSgeAeg90YonvdPzOpjc5HiXyLd9OeabbiHyOWdFXpNUQ-LzXTOj8AHkDnlTyovkCnBDhNZ_TQDIDuzZslJaaY11UvLeHnQ14lciRhXaK6aYmswI1J4ySf11qY-f-yM1XRTnFTmGFcXXte7NfPLeohcTHntlNZzgvrObaJ3IoU9CKD5EMwAVJIghIRoQy4bJgcS9gIpfERDkrRJSXoqDll_Yc8ApfBq7a8Ly1bXMVGeqgSiNu_xwFmlPS-FH0BGUfKXiVdE9tZVJ84ANAkX5JxBInqiYPbdI1Oagful-ixENqicaDmQzYIPdWaQp-mEM8sCDgbOum9G-0K5GGiSkUQJSAu8BuHE8UYHrErcn_KwwyhudoINGeM3mVNQEx_OMra968HNFQhOs_j7FhNSQZEDAckoh0kFW40]--></g></svg>